<svg width="140" height="140" viewBox="0 0 140 140" fill="none" xmlns="http://www.w3.org/2000/svg">
<circle cx="70" cy="70" r="70" fill="#FCFCFC"/>
<path d="M51.2496 117.832C50.9871 117.832 50.7205 117.782 50.4621 117.677C49.3996 117.244 48.8871 116.027 49.3246 114.961L86.8254 23.2922C87.2629 22.2297 88.4879 21.7213 89.5421 22.1547C90.6046 22.588 91.1171 23.8047 90.6796 24.8714L53.1789 116.54C52.8497 117.344 52.0705 117.832 51.2496 117.832Z" fill="#FFDC4E"/>
<path d="M92.9171 101.165C92.438 101.165 91.9546 100.998 91.5629 100.66C90.6879 99.9105 90.5879 98.5979 91.3379 97.7229L115.172 69.914L91.3338 42.1009C90.5838 41.2301 90.6838 39.9134 91.5588 39.1634C92.4338 38.4134 93.7463 38.5134 94.4963 39.3884L119.497 68.5557C120.168 69.3348 120.168 70.4849 119.497 71.264L94.4963 100.431C94.088 100.919 93.5047 101.165 92.9171 101.165Z" fill="#242938"/>
<path d="M47.0829 101.165C46.4953 101.165 45.912 100.919 45.5037 100.435L20.5031 71.2682C19.8323 70.489 19.8323 69.339 20.5031 68.5598L45.5037 39.3925C46.2537 38.5175 47.5704 38.4175 48.4412 39.1675C49.3121 39.9134 49.4162 41.2301 48.6621 42.1009L24.8282 69.914L48.6662 97.7271C49.4162 98.5979 49.3162 99.9146 48.4412 100.665C48.0454 100.998 47.562 101.165 47.0829 101.165Z" fill="#242938"/>
</svg>
