<?xml version="1.0" standalone="no"?>
<!DOCTYPE svg PUBLIC "-//W3C//DTD SVG 20010904//EN"
 "http://www.w3.org/TR/2001/REC-SVG-20010904/DTD/svg10.dtd">
<svg version="1.0" xmlns="http://www.w3.org/2000/svg"
 width="522.000000pt" height="522.000000pt" viewBox="0 0 522.000000 522.000000"
 preserveAspectRatio="xMidYMid meet">
<metadata>
Created by potrace 1.11, written by Peter Selinger 2001-2013
</metadata>
<g transform="translate(0.000000,522.000000) scale(0.100000,-0.100000)"
fill="#000000" stroke="none">
<path d="M2409 5206 c-2 -2 -35 -7 -72 -11 -37 -3 -77 -8 -89 -10 -11 -2 -40
-7 -64 -9 -53 -7 -252 -52 -291 -67 -15 -6 -29 -10 -31 -9 -6 3 -202 -66 -260
-92 -35 -15 -70 -28 -77 -28 -7 0 -15 -3 -17 -7 -1 -5 -43 -28 -93 -52 -120
-60 -370 -219 -431 -276 -6 -5 -33 -28 -60 -50 -83 -68 -267 -255 -343 -350
-112 -139 -222 -310 -303 -473 -40 -81 -78 -160 -84 -177 -6 -16 -21 -55 -32
-85 -24 -63 -70 -206 -78 -241 -3 -13 -7 -35 -10 -49 -3 -14 -7 -33 -10 -42
-3 -10 -7 -28 -10 -40 -2 -13 -6 -34 -9 -48 -3 -14 -8 -43 -11 -65 -3 -22 -8
-51 -10 -65 -13 -67 -18 -172 -18 -350 0 -177 4 -252 18 -348 3 -18 8 -52 11
-75 4 -23 13 -70 20 -103 8 -34 16 -73 19 -85 13 -65 39 -155 47 -164 5 -5 9
-21 9 -35 0 -14 4 -30 8 -35 5 -6 19 -39 31 -75 61 -173 225 -472 350 -635
119 -155 286 -332 396 -420 27 -22 57 -47 66 -55 25 -23 50 -42 99 -75 25 -16
47 -33 50 -36 8 -10 131 -87 170 -106 19 -10 37 -21 40 -24 9 -10 236 -118
295 -140 267 -100 435 -142 715 -176 83 -10 446 -9 525 1 33 4 71 9 85 11 182
24 392 78 585 150 185 69 480 231 620 343 6 4 26 19 45 32 19 13 40 29 46 35
6 5 46 42 89 80 73 65 157 149 234 235 18 19 66 80 107 135 41 55 78 105 82
110 19 24 120 194 141 235 12 25 26 52 31 60 14 22 69 146 97 220 14 36 29 74
33 85 11 25 68 221 75 255 3 14 9 48 15 75 21 101 31 161 36 220 1 17 3 30 4
30 12 0 17 421 6 505 -13 97 -14 104 -20 160 -19 153 -99 439 -168 602 -68
158 -207 417 -230 426 -4 2 -8 8 -8 13 0 10 -57 94 -87 129 -13 13 -23 28 -23
31 0 3 -10 17 -22 31 -13 13 -43 48 -68 78 -78 93 -232 242 -320 310 -24 19
-53 43 -65 53 -19 17 -195 137 -240 164 -82 49 -312 164 -338 169 -11 2 -24 7
-31 12 -6 5 -67 28 -135 51 -166 56 -348 99 -491 116 -25 4 -58 9 -75 12 -33
6 -471 14 -476 9z"/>
</g>
</svg>
