<svg width="135" height="135" viewBox="0 0 135 135" fill="none" xmlns="http://www.w3.org/2000/svg">
<circle cx="2.66667" cy="2.66667" r="1.66667" fill="#3D3F4C"/>
<circle cx="15.9444" cy="1.94444" r="1.94444" fill="#3D3F4C"/>
<ellipse cx="30.2222" cy="1.94444" rx="2.22222" ry="1.94444" fill="#3D3F4C"/>
<circle cx="44.9444" cy="1.94444" r="1.94444" fill="#3D3F4C"/>
<circle cx="58.9444" cy="1.94444" r="1.94444" fill="#3D3F4C"/>
<circle cx="72.9444" cy="1.94444" r="1.94444" fill="#3D3F4C"/>
<circle cx="86.9444" cy="1.94444" r="1.94444" fill="#3D3F4C"/>
<ellipse cx="101.222" cy="1.94444" rx="2.22222" ry="1.94444" fill="#3D3F4C"/>
<circle cx="115.944" cy="1.94444" r="1.94444" fill="#3D3F4C"/>
<circle cx="129.944" cy="1.94444" r="1.94444" fill="#3D3F4C"/>
<circle cx="1.94444" cy="15.9444" r="1.94444" fill="#3D3F4C"/>
<circle cx="15.9444" cy="15.9444" r="1.94444" fill="#3D3F4C"/>
<ellipse cx="30.2222" cy="15.9444" rx="2.22222" ry="1.94444" fill="#3D3F4C"/>
<circle cx="44.9444" cy="15.9444" r="1.94444" fill="#3D3F4C"/>
<circle cx="58.9444" cy="15.9444" r="1.94444" fill="#3D3F4C"/>
<circle cx="72.9444" cy="15.9444" r="1.94444" fill="#3D3F4C"/>
<circle cx="86.9444" cy="15.9444" r="1.94444" fill="#3D3F4C"/>
<ellipse cx="101.222" cy="15.9444" rx="2.22222" ry="1.94444" fill="#3D3F4C"/>
<circle cx="115.944" cy="15.9444" r="1.94444" fill="#3D3F4C"/>
<circle cx="129.944" cy="15.9444" r="1.94444" fill="#3D3F4C"/>
<ellipse cx="1.94444" cy="30.2222" rx="1.94444" ry="2.22222" fill="#3D3F4C"/>
<ellipse cx="15.9444" cy="30.2222" rx="1.94444" ry="2.22222" fill="#3D3F4C"/>
<circle cx="30.2222" cy="30.2222" r="2.22222" fill="#3D3F4C"/>
<ellipse cx="44.9444" cy="30.2222" rx="1.94444" ry="2.22222" fill="#3D3F4C"/>
<ellipse cx="58.9444" cy="30.2222" rx="1.94444" ry="2.22222" fill="#3D3F4C"/>
<ellipse cx="72.9444" cy="30.2222" rx="1.94444" ry="2.22222" fill="#3D3F4C"/>
<ellipse cx="86.9444" cy="30.2222" rx="1.94444" ry="2.22222" fill="#3D3F4C"/>
<circle cx="101.222" cy="30.2222" r="2.22222" fill="#3D3F4C"/>
<ellipse cx="115.944" cy="30.2222" rx="1.94444" ry="2.22222" fill="#3D3F4C"/>
<ellipse cx="129.944" cy="30.2222" rx="1.94444" ry="2.22222" fill="#3D3F4C"/>
<circle cx="1.94444" cy="44.9444" r="1.94444" fill="#3D3F4C"/>
<circle cx="15.9444" cy="44.9444" r="1.94444" fill="#3D3F4C"/>
<ellipse cx="30.2222" cy="44.9444" rx="2.22222" ry="1.94444" fill="#3D3F4C"/>
<circle cx="44.9444" cy="44.9444" r="1.94444" fill="#3D3F4C"/>
<circle cx="58.9444" cy="44.9444" r="1.94444" fill="#3D3F4C"/>
<circle cx="72.9444" cy="44.9444" r="1.94444" fill="#3D3F4C"/>
<circle cx="86.9444" cy="44.9444" r="1.94444" fill="#3D3F4C"/>
<ellipse cx="101.222" cy="44.9444" rx="2.22222" ry="1.94444" fill="#3D3F4C"/>
<circle cx="115.944" cy="44.9444" r="1.94444" fill="#3D3F4C"/>
<circle cx="129.944" cy="44.9444" r="1.94444" fill="#3D3F4C"/>
<circle cx="1.94444" cy="58.9444" r="1.94444" fill="#3D3F4C"/>
<circle cx="15.9444" cy="58.9444" r="1.94444" fill="#3D3F4C"/>
<ellipse cx="30.2222" cy="58.9444" rx="2.22222" ry="1.94444" fill="#3D3F4C"/>
<circle cx="44.9444" cy="58.9444" r="1.94444" fill="#3D3F4C"/>
<circle cx="58.9444" cy="58.9444" r="1.94444" fill="#3D3F4C"/>
<circle cx="72.9444" cy="58.9444" r="1.94444" fill="#3D3F4C"/>
<circle cx="86.9444" cy="58.9444" r="1.94444" fill="#3D3F4C"/>
<ellipse cx="101.222" cy="58.9444" rx="2.22222" ry="1.94444" fill="#3D3F4C"/>
<circle cx="115.944" cy="58.9444" r="1.94444" fill="#3D3F4C"/>
<circle cx="129.944" cy="58.9444" r="1.94444" fill="#3D3F4C"/>
<circle cx="1.94444" cy="72.9444" r="1.94444" fill="#3D3F4C"/>
<circle cx="15.9444" cy="72.9444" r="1.94444" fill="#3D3F4C"/>
<ellipse cx="30.2222" cy="72.9444" rx="2.22222" ry="1.94444" fill="#3D3F4C"/>
<circle cx="44.9444" cy="72.9444" r="1.94444" fill="#3D3F4C"/>
<circle cx="58.9444" cy="72.9444" r="1.94444" fill="#3D3F4C"/>
<circle cx="72.9444" cy="72.9444" r="1.94444" fill="#3D3F4C"/>
<circle cx="86.9444" cy="72.9444" r="1.94444" fill="#3D3F4C"/>
<ellipse cx="101.222" cy="72.9444" rx="2.22222" ry="1.94444" fill="#3D3F4C"/>
<circle cx="115.944" cy="72.9444" r="1.94444" fill="#3D3F4C"/>
<circle cx="129.944" cy="72.9444" r="1.94444" fill="#3D3F4C"/>
<circle cx="1.94444" cy="86.9444" r="1.94444" fill="#3D3F4C"/>
<circle cx="15.9444" cy="86.9444" r="1.94444" fill="#3D3F4C"/>
<ellipse cx="30.2222" cy="86.9444" rx="2.22222" ry="1.94444" fill="#3D3F4C"/>
<circle cx="44.9444" cy="86.9444" r="1.94444" fill="#3D3F4C"/>
<circle cx="58.9444" cy="86.9444" r="1.94444" fill="#3D3F4C"/>
<circle cx="72.9444" cy="86.9444" r="1.94444" fill="#3D3F4C"/>
<circle cx="86.9444" cy="86.9444" r="1.94444" fill="#3D3F4C"/>
<ellipse cx="101.222" cy="86.9444" rx="2.22222" ry="1.94444" fill="#3D3F4C"/>
<circle cx="115.944" cy="86.9444" r="1.94444" fill="#3D3F4C"/>
<circle cx="129.944" cy="86.9444" r="1.94444" fill="#3D3F4C"/>
<ellipse cx="1.94444" cy="101.222" rx="1.94444" ry="2.22222" fill="#3D3F4C"/>
<ellipse cx="15.9444" cy="101.222" rx="1.94444" ry="2.22222" fill="#3D3F4C"/>
<circle cx="30.2222" cy="101.222" r="2.22222" fill="#3D3F4C"/>
<ellipse cx="44.9444" cy="101.222" rx="1.94444" ry="2.22222" fill="#3D3F4C"/>
<ellipse cx="58.9444" cy="101.222" rx="1.94444" ry="2.22222" fill="#3D3F4C"/>
<ellipse cx="72.9444" cy="101.222" rx="1.94444" ry="2.22222" fill="#3D3F4C"/>
<ellipse cx="86.9444" cy="101.222" rx="1.94444" ry="2.22222" fill="#3D3F4C"/>
<circle cx="101.222" cy="101.222" r="2.22222" fill="#3D3F4C"/>
<ellipse cx="115.944" cy="101.222" rx="1.94444" ry="2.22222" fill="#3D3F4C"/>
<ellipse cx="129.944" cy="101.222" rx="1.94444" ry="2.22222" fill="#3D3F4C"/>
<circle cx="1.94444" cy="115.944" r="1.94444" fill="#3D3F4C"/>
<circle cx="15.9444" cy="115.944" r="1.94444" fill="#3D3F4C"/>
<ellipse cx="30.2222" cy="115.944" rx="2.22222" ry="1.94444" fill="#3D3F4C"/>
<circle cx="44.9444" cy="115.944" r="1.94444" fill="#3D3F4C"/>
<circle cx="58.9444" cy="115.944" r="1.94444" fill="#3D3F4C"/>
<circle cx="72.9444" cy="115.944" r="1.94444" fill="#3D3F4C"/>
<circle cx="86.9444" cy="115.944" r="1.94444" fill="#3D3F4C"/>
<ellipse cx="101.222" cy="115.944" rx="2.22222" ry="1.94444" fill="#3D3F4C"/>
<circle cx="115.944" cy="115.944" r="1.94444" fill="#3D3F4C"/>
<circle cx="129.944" cy="115.944" r="1.94444" fill="#3D3F4C"/>
<circle cx="1.94444" cy="129.944" r="1.94444" fill="#3D3F4C"/>
<circle cx="15.9444" cy="129.944" r="1.94444" fill="#3D3F4C"/>
<ellipse cx="30.2222" cy="129.944" rx="2.22222" ry="1.94444" fill="#3D3F4C"/>
<circle cx="44.9444" cy="129.944" r="1.94444" fill="#3D3F4C"/>
<circle cx="58.9444" cy="129.944" r="1.94444" fill="#3D3F4C"/>
<circle cx="72.9444" cy="129.944" r="1.94444" fill="#3D3F4C"/>
<circle cx="86.9444" cy="129.944" r="1.94444" fill="#3D3F4C"/>
<ellipse cx="101.222" cy="129.944" rx="2.22222" ry="1.94444" fill="#3D3F4C"/>
<circle cx="115.944" cy="129.944" r="1.94444" fill="#3D3F4C"/>
<circle cx="129.944" cy="129.944" r="1.94444" fill="#3D3F4C"/>
</svg>
