<svg width="36" height="36" viewBox="0 0 36 36" fill="#3D3F4C" xmlns="http://www.w3.org/2000/svg">
<path d="M30.9143 4.53856C27.6316 1.51285 23.5484 0 18.672 0C13.5459 0 9.17626 1.71848 5.57038 5.16279C1.96451 8.6071 0.157898 12.8886 0.157898 18.0147C0.157898 22.9278 1.87638 27.1506 5.306 30.6903C8.75031 34.2301 13.377 36 19.2007 36C22.7111 36 26.1555 35.2803 29.5337 33.8335C30.6353 33.3635 31.1714 32.1004 30.7234 30.9914C30.2607 29.8458 28.9535 29.317 27.8152 29.8017C24.8776 31.0649 21.9988 31.6965 19.1934 31.6965C14.7283 31.6965 11.2693 30.3378 8.81641 27.6132C6.37087 24.896 5.14443 21.7013 5.14443 18.0367C5.14443 14.0563 6.459 10.7368 9.08079 8.07099C11.6952 5.41248 14.9192 4.07589 18.7381 4.07589C22.2558 4.07589 25.2301 5.17013 27.6536 7.35863C30.0771 9.54712 31.2889 12.3011 31.2889 15.6206C31.2889 17.8898 30.7307 19.7846 29.6218 21.2901C28.5129 22.8029 27.3599 23.552 26.1628 23.552C25.5165 23.552 25.1934 23.2069 25.1934 22.5092C25.1934 21.9437 25.2375 21.2827 25.3182 20.519L26.6842 9.34884H21.9841L21.683 10.4431C20.4859 9.46634 19.1714 8.9743 17.7466 8.9743C15.4847 8.9743 13.5459 9.8776 11.9376 11.6769C10.3219 13.4761 9.52142 15.7968 9.52142 18.6316C9.52142 21.4002 10.2338 23.6401 11.6659 25.3366C13.0979 27.0404 14.8164 27.8849 16.8286 27.8849C18.6279 27.8849 20.1628 27.1285 21.4406 25.623C22.4027 27.0698 23.8201 27.7895 25.6928 27.7895C28.4468 27.7895 30.8262 26.5924 32.8311 24.1909C34.836 21.7968 35.8421 18.9033 35.8421 15.5177C35.8421 11.2289 34.2044 7.56426 30.9143 4.53856ZM20.0894 21.437C19.2595 22.5532 18.2681 23.1187 17.1151 23.1187C16.3293 23.1187 15.6977 22.7075 15.2203 21.8849C14.7356 21.0624 14.4933 20.0416 14.4933 18.8152C14.4933 17.3023 14.8311 16.0832 15.5067 15.1579C16.1824 14.2326 17.0196 13.7625 18.0184 13.7625C18.885 13.7625 19.6561 14.1077 20.3317 14.8054C21.0074 15.5031 21.3452 16.4284 21.3452 17.5887C21.3378 19.0355 20.9192 20.3133 20.0894 21.437Z" fill="inherit"/>
</svg>
