<svg width="512" height="512" viewBox="0 0 512 512" fill="none" xmlns="http://www.w3.org/2000/svg">
<g clip-path="url(#clip0)">
<path d="M485.332 314.004V229.814L399.999 174.83V365.814L485.332 314.004Z" fill="white"/>
<path d="M485.332 478.518V338.95L364.242 412.469L485.332 478.518Z" fill="white"/>
<path d="M250.792 374.886L48.166 490.667H463.06L250.792 374.886Z" fill="white"/>
<path d="M26.668 478.382L144.975 410.779L26.668 338.95V478.382Z" fill="white"/>
<path d="M293.333 181.332H186.667V223.998H293.333V181.332Z" fill="white"/>
<path d="M261.333 87.252L213.194 117.335H309.472L261.333 87.252Z" fill="white"/>
<path d="M166.141 398.684L245.376 353.407C248.595 351.563 252.532 351.553 255.772 353.303L342.6 400.664L378.684 378.755C378.684 378.724 378.666 378.698 378.666 378.667V138.668H133.334V378.667C133.334 378.698 133.316 378.724 133.316 378.755L166.141 398.684ZM165.334 170.669C165.334 164.773 170.105 160.002 176.001 160.002H304C309.896 160.002 314.667 164.773 314.667 170.669V234.669C314.667 240.565 309.896 245.336 304 245.336H176C170.104 245.336 165.333 240.565 165.333 234.669V170.669H165.334ZM165.334 266.668H336V288.001H165.334V266.668ZM165.334 309.334H336V330.667H165.334V309.334Z" fill="#FFE792"/>
<path d="M112.001 365.814V174.83L26.668 229.814V314.004L112.001 365.814Z" fill="white"/>
<path d="M501.78 215.033L402.468 151.033C401.692 150.538 400.835 150.35 399.999 150.074V128.002C399.999 122.106 395.228 117.335 389.332 117.335H349.722L266.99 65.627C263.532 63.46 259.136 63.46 255.678 65.627L172.945 117.335H122.668C116.772 117.335 112.001 122.106 112.001 128.002V150.069C111.164 150.346 110.307 150.536 109.532 151.033L10.22 215.033C7.17796 217.002 5.33496 220.377 5.33496 224.002V501.334C5.33496 507.23 10.106 512.001 16.002 512.001H495.999C501.895 512.001 506.666 507.23 506.666 501.334V224.002C506.665 220.377 504.822 217.002 501.78 215.033ZM144.975 410.779L26.668 478.382V338.95L144.975 410.779ZM250.792 374.886L463.06 490.667H48.166L250.792 374.886ZM485.332 478.518L364.242 412.469L485.332 338.95V478.518ZM485.332 229.814V314.004L399.999 365.814V174.83L485.332 229.814ZM261.333 87.252L309.472 117.335H213.194L261.333 87.252ZM133.334 138.669H378.666V378.668C378.666 378.699 378.684 378.725 378.684 378.756L342.6 400.665L255.772 353.304C252.533 351.554 248.595 351.565 245.376 353.408L166.141 398.685L133.317 378.756C133.317 378.725 133.335 378.699 133.335 378.668L133.334 138.669ZM112.001 174.83V365.814L26.668 314.004V229.814L112.001 174.83Z" fill="#04776A"/>
<path d="M176 245.335H304C309.896 245.335 314.667 240.564 314.667 234.668V170.668C314.667 164.772 309.896 160.001 304 160.001H176C170.104 160.001 165.333 164.772 165.333 170.668V234.668C165.334 240.564 170.105 245.335 176 245.335ZM186.667 181.335H293.333V224.001H186.667V181.335Z" fill="#04776A"/>
<path d="M336 266.665H165.334V287.998H336V266.665Z" fill="#04776A"/>
<path d="M336 309.332H165.334V330.665H336V309.332Z" fill="#04776A"/>
<path d="M453.332 128.002C456.061 128.002 458.79 126.96 460.874 124.877L498.582 87.169C502.749 83.002 502.749 76.252 498.582 72.086C494.415 67.92 487.665 67.919 483.499 72.086L445.791 109.794C441.624 113.961 441.624 120.711 445.791 124.877C447.874 126.96 450.603 128.002 453.332 128.002Z" fill="#04776A"/>
<path d="M51.126 124.877C53.209 126.96 55.939 128.002 58.668 128.002C61.397 128.002 64.126 126.96 66.21 124.877C70.377 120.71 70.377 113.96 66.21 109.794L28.501 72.086C24.334 67.919 17.584 67.919 13.418 72.086C9.25197 76.253 9.25097 83.003 13.418 87.169L51.126 124.877Z" fill="#04776A"/>
<path d="M364.041 73.909C365.333 74.43 366.676 74.67 367.999 74.67C372.228 74.67 376.238 72.139 377.905 67.962L399.238 14.629C401.425 9.16 398.759 2.952 393.29 0.765002C387.873 -1.412 381.613 1.223 379.426 6.713L358.093 60.046C355.906 65.513 358.572 71.721 364.041 73.909Z" fill="#04776A"/>
<path d="M144.761 67.961C146.428 72.138 150.438 74.669 154.667 74.669C155.99 74.669 157.334 74.43 158.625 73.908C164.094 71.721 166.76 65.512 164.573 60.044L143.24 6.71099C141.053 1.22099 134.802 -1.41401 129.376 0.762988C123.907 2.94999 121.241 9.15899 123.428 14.627L144.761 67.961Z" fill="#04776A"/>
</g>
<defs>
<clipPath id="clip0">
<rect width="512" height="512" fill="white"/>
</clipPath>
</defs>
</svg>
