<svg width="36" height="36" viewBox="0 0 36 36" fill="#3D3F4C" xmlns="http://www.w3.org/2000/svg">
<path d="M25.2754 0H10.7246C4.81103 0 0 4.81103 0 10.7246V25.2754C0 31.189 4.81103 36 10.7246 36H25.2754C31.189 36 36 31.189 36 25.2754V10.7246C35.9999 4.81103 31.1889 0 25.2754 0ZM32.3784 25.2754C32.3784 29.1982 29.1982 32.3784 25.2754 32.3784H10.7246C6.80175 32.3784 3.6216 29.1982 3.6216 25.2754V10.7246C3.6216 6.80169 6.80175 3.6216 10.7246 3.6216H25.2754C29.1982 3.6216 32.3784 6.80169 32.3784 10.7246V25.2754Z" fill="inherit" />
<path d="M18 8.68921C12.866 8.68921 8.68912 12.8661 8.68912 18C8.68912 23.134 12.866 27.3109 18 27.3109C23.134 27.3109 27.3109 23.1341 27.3109 18C27.3109 12.866 23.134 8.68921 18 8.68921ZM18 23.6894C14.8579 23.6894 12.3107 21.1422 12.3107 18.0001C12.3107 14.858 14.8579 12.3108 18 12.3108C21.1421 12.3108 23.6893 14.858 23.6893 18.0001C23.6893 21.1422 21.1421 23.6894 18 23.6894Z" fill="inherit"/>
<path d="M27.3289 10.9902C28.5611 10.9902 29.5599 9.99135 29.5599 8.75916C29.5599 7.52696 28.5611 6.52808 27.3289 6.52808C26.0967 6.52808 25.0978 7.52696 25.0978 8.75916C25.0978 9.99135 26.0967 10.9902 27.3289 10.9902Z" fill="inherit"/>
</svg>
