<svg width="36" height="36" viewBox="0 0 36 36" fill="#3D3F4C" xmlns="http://www.w3.org/2000/svg">
<g clip-path="url(#linkedin)">
<path d="M4.34601 0.311035C6.70455 0.311035 8.69066 2.29715 8.69066 4.65569C8.69066 7.13833 6.58039 9.06243 4.34601 9.00035C2.04955 9.06243 0.00135978 7.13833 0.00135978 4.65569C-0.0607237 2.23506 1.92546 0.311035 4.34601 0.311035Z" fill="inherit"/>
<path d="M6.76655 35.689H1.80121C1.1185 35.689 0.559891 35.1304 0.559891 34.4477V12.7245C0.559891 12.0418 1.05642 11.4832 1.73913 11.4832H6.76648C7.44919 11.4832 8.0078 12.0418 8.0078 12.7245V34.5098C8.00787 35.1304 7.44926 35.689 6.76655 35.689Z" fill="inherit"/>
<path d="M35.9379 19.0551C35.9379 14.4622 32.5242 10.8623 27.9313 10.8623H26.6279C24.1453 10.8623 21.7246 12.0415 20.4212 13.9656C19.9868 14.4001 19.8005 14.5863 19.8005 14.5863V12.1037C19.8005 11.8554 19.4281 11.483 19.1798 11.483H12.9732C12.7249 11.483 12.3525 11.7313 12.3525 12.0416V35.1924C12.3525 35.4407 12.7249 35.689 12.9732 35.689H19.8005C20.0487 35.689 20.4212 35.4407 20.4212 35.1924V21.786C20.4212 19.4895 22.159 17.5654 24.4555 17.5034C25.6347 17.5034 26.6898 17.9379 27.4967 18.7447C28.2415 19.4895 28.5519 20.5447 28.5519 21.7239V35.0682C28.5519 35.3165 28.9243 35.6889 29.1725 35.6889H35.3792C35.6275 35.6889 35.9999 35.3165 35.9999 35.0682V19.0551H35.9379Z" fill="inherit"/>
</g>
<defs>
<clipPath id="linkedin">
<rect width="36" height="36" fill="white"/>
</clipPath>
</defs>
</svg>
