<svg width="200" height="57" viewBox="0 0 200 57" fill="none" xmlns="http://www.w3.org/2000/svg">
<g clip-path="url(#logo)">
<path d="M18.601 56.8581C18.4447 56.8581 18.286 56.8283 18.1322 56.7666C17.4998 56.5094 17.1947 55.7876 17.4551 55.1547L39.7771 0.766663C40.0375 0.136256 40.7666 -0.165351 41.3941 0.091757C42.0266 0.348864 42.3316 1.07074 42.0712 1.70362L19.7493 56.0917C19.5534 56.5688 19.0896 56.8581 18.601 56.8581Z" fill="#04776A"/>
<path d="M43.403 46.9693C43.1178 46.9693 42.83 46.8704 42.5969 46.6702C42.0761 46.2251 42.0165 45.4464 42.463 44.9273L56.6498 28.4279L42.4605 11.9261C42.0141 11.4094 42.0736 10.6282 42.5944 10.1832C43.1153 9.73819 43.8965 9.79752 44.343 10.3167L59.2243 27.622C59.6237 28.0843 59.6237 28.7666 59.2243 29.2289L44.343 46.5342C44.0999 46.8234 43.7527 46.9693 43.403 46.9693Z" fill="#04776A"/>
<path d="M16.1208 46.682C15.771 46.682 15.4238 46.5362 15.1808 46.2494L0.299485 28.9441C-0.0998284 28.4818 -0.0998284 27.7995 0.299485 27.3372L15.1808 10.0319C15.6272 9.51273 16.411 9.4534 16.9293 9.89839C17.4477 10.3409 17.5096 11.1222 17.0608 11.6388L2.87395 28.1406L17.0632 44.6425C17.5096 45.1591 17.4501 45.9404 16.9293 46.3853C16.6937 46.5832 16.406 46.682 16.1208 46.682Z" fill="#04776A"/>
<path d="M77.6244 38.0313C78.2583 38.0313 78.8018 38.1893 79.2536 38.5053C79.7054 38.8214 80.0464 39.2483 80.2756 39.7863C80.5048 40.3175 80.6196 40.9093 80.6196 41.5615C80.6196 42.2205 80.5048 42.8189 80.2756 43.3568C80.0464 43.888 79.7054 44.3117 79.2536 44.6277C78.8018 44.937 78.2583 45.0917 77.6244 45.0917H75.1351C75 45.0917 74.8857 45.0446 74.7911 44.9505C74.6964 44.8563 74.6494 44.7421 74.6494 44.6075V38.5154C74.6494 38.3809 74.6964 38.2666 74.7911 38.1725C74.8857 38.0783 75 38.0313 75.1351 38.0313H77.6244ZM77.5232 44.1638C78.2113 44.1638 78.7274 43.9217 79.0714 43.4375C79.4155 42.9467 79.5875 42.3213 79.5875 41.5615C79.5875 40.8084 79.4119 40.1864 79.0613 39.6955C78.7173 39.2047 78.2048 38.9592 77.5232 38.9592H75.6512V44.1638H77.5232ZM85.9101 44.1638C86.0518 44.1638 86.1661 44.2108 86.2542 44.305C86.3482 44.3991 86.3958 44.5101 86.3958 44.6378C86.3958 44.7723 86.3482 44.8833 86.2542 44.9707C86.1661 45.0513 86.0518 45.0917 85.9101 45.0917H82.3887C82.2536 45.0917 82.1387 45.0446 82.0447 44.9505C81.95 44.8563 81.903 44.7421 81.903 44.6075V38.5154C81.903 38.3809 81.95 38.2666 82.0447 38.1725C82.1387 38.0783 82.2536 38.0313 82.3887 38.0313H85.9101C86.0518 38.0313 86.1661 38.075 86.2542 38.1624C86.3482 38.2498 86.3958 38.3641 86.3958 38.5053C86.3958 38.6398 86.3482 38.7508 86.2542 38.8382C86.1661 38.9189 86.0518 38.9592 85.9101 38.9592H82.9048V41.0168H85.4548C85.5964 41.0168 85.7107 41.0606 85.7988 41.1479C85.8929 41.2353 85.9405 41.3463 85.9405 41.4808C85.9405 41.622 85.8929 41.733 85.7988 41.8136C85.7107 41.8943 85.5964 41.9347 85.4548 41.9347H82.9048V44.1638H85.9101ZM92.8244 38.0212C92.9595 38.0212 93.0738 38.0649 93.1685 38.1523C93.2696 38.2397 93.3202 38.3473 93.3202 38.4751C93.3202 38.5423 93.3036 38.6163 93.2696 38.697L90.6893 44.779C90.6423 44.8799 90.5744 44.9572 90.4869 45.011C90.3994 45.0648 90.3083 45.0917 90.2137 45.0917C90.1262 45.085 90.0417 45.0581 89.9607 45.011C89.8863 44.9572 89.8256 44.8833 89.7786 44.7891L87.1982 38.697C87.1714 38.6432 87.1577 38.5726 87.1577 38.4852C87.1577 38.344 87.2083 38.2296 87.3095 38.1422C87.4107 38.0548 87.522 38.0111 87.6435 38.0111C87.8458 38.0111 87.9941 38.1187 88.0887 38.3339L90.2947 43.5283L92.3792 38.3238C92.4262 38.2296 92.4869 38.1557 92.5613 38.1019C92.6423 38.0481 92.7298 38.0212 92.8244 38.0212ZM98.4798 44.1638C98.6214 44.1638 98.7357 44.2108 98.8238 44.305C98.9179 44.3991 98.9655 44.5101 98.9655 44.6378C98.9655 44.7723 98.9179 44.8833 98.8238 44.9707C98.7357 45.0513 98.6214 45.0917 98.4798 45.0917H94.9583C94.8232 45.0917 94.7083 45.0446 94.6143 44.9505C94.5196 44.8563 94.4726 44.7421 94.4726 44.6075V38.5154C94.4726 38.3809 94.5196 38.2666 94.6143 38.1725C94.7083 38.0783 94.8232 38.0313 94.9583 38.0313H98.4798C98.6214 38.0313 98.7357 38.075 98.8238 38.1624C98.9179 38.2498 98.9655 38.3641 98.9655 38.5053C98.9655 38.6398 98.9179 38.7508 98.8238 38.8382C98.7357 38.9189 98.6214 38.9592 98.4798 38.9592H95.4744V41.0168H98.0244C98.1661 41.0168 98.2804 41.0606 98.3685 41.1479C98.4625 41.2353 98.5101 41.3463 98.5101 41.4808C98.5101 41.622 98.4625 41.733 98.3685 41.8136C98.2804 41.8943 98.1661 41.9347 98.0244 41.9347H95.4744V44.1638H98.4798ZM104.149 44.1537C104.291 44.1537 104.406 44.1974 104.493 44.2848C104.588 44.3722 104.635 44.4865 104.635 44.6277C104.635 44.7622 104.588 44.8732 104.493 44.9606C104.406 45.048 104.291 45.0917 104.149 45.0917H100.729C100.588 45.0917 100.47 45.0446 100.375 44.9505C100.288 44.8563 100.243 44.7421 100.243 44.6075V38.5154C100.243 38.3809 100.29 38.2666 100.385 38.1725C100.48 38.0783 100.601 38.0313 100.749 38.0313C100.885 38.0313 100.999 38.0783 101.093 38.1725C101.195 38.2666 101.245 38.3809 101.245 38.5154V44.1537H104.149ZM112.144 41.5615C112.144 42.2407 111.995 42.8559 111.699 43.4073C111.408 43.9586 111.004 44.3957 110.485 44.7185C109.965 45.0346 109.378 45.1926 108.724 45.1926C108.069 45.1926 107.482 45.0346 106.963 44.7185C106.443 44.3957 106.035 43.9586 105.739 43.4073C105.448 42.8559 105.304 42.2407 105.304 41.5615C105.304 40.8823 105.448 40.2671 105.739 39.7157C106.035 39.1643 106.443 38.7306 106.963 38.4146C107.482 38.0918 108.069 37.9304 108.724 37.9304C109.378 37.9304 109.965 38.0918 110.485 38.4146C111.004 38.7306 111.408 39.1643 111.699 39.7157C111.995 40.2671 112.144 40.8823 112.144 41.5615ZM111.102 41.5615C111.102 41.0572 111.001 40.6033 110.798 40.1998C110.596 39.7897 110.313 39.4702 109.948 39.2416C109.59 39.0063 109.182 38.8886 108.724 38.8886C108.265 38.8886 107.854 39.0029 107.489 39.2316C107.132 39.4602 106.852 39.7796 106.649 40.1898C106.447 40.5932 106.346 41.0505 106.346 41.5615C106.346 42.0658 106.447 42.5231 106.649 42.9332C106.852 43.3367 107.132 43.6561 107.489 43.8914C107.854 44.12 108.265 44.2344 108.724 44.2344C109.182 44.2344 109.59 44.12 109.948 43.8914C110.313 43.6561 110.596 43.3367 110.798 42.9332C111.001 42.5231 111.102 42.0658 111.102 41.5615ZM116.249 38.0313C116.607 38.0313 116.938 38.1288 117.241 38.3238C117.545 38.512 117.784 38.771 117.96 39.1004C118.142 39.4299 118.233 39.793 118.233 40.1898C118.233 40.5865 118.142 40.9529 117.96 41.2892C117.784 41.6254 117.545 41.891 117.241 42.086C116.938 42.281 116.607 42.3785 116.249 42.3785H114.347V44.6075C114.347 44.7421 114.303 44.8563 114.215 44.9505C114.128 45.0446 114.017 45.0917 113.882 45.0917C113.74 45.0917 113.625 45.048 113.538 44.9606C113.457 44.8664 113.416 44.7488 113.416 44.6075V38.5154C113.416 38.3809 113.463 38.2666 113.558 38.1725C113.652 38.0783 113.767 38.0313 113.902 38.0313H116.249ZM116.249 41.4606C116.432 41.4606 116.6 41.4035 116.755 41.2892C116.911 41.1681 117.032 41.0101 117.12 40.8151C117.214 40.6201 117.261 40.4116 117.261 40.1898C117.261 39.8468 117.16 39.5577 116.958 39.3223C116.762 39.0803 116.526 38.9592 116.249 38.9592H114.347V41.4606H116.249ZM123.49 44.1638C123.632 44.1638 123.747 44.2108 123.835 44.305C123.929 44.3991 123.976 44.5101 123.976 44.6378C123.976 44.7723 123.929 44.8833 123.835 44.9707C123.747 45.0513 123.632 45.0917 123.49 45.0917H119.969C119.835 45.0917 119.72 45.0446 119.625 44.9505C119.531 44.8563 119.483 44.7421 119.483 44.6075V38.5154C119.483 38.3809 119.531 38.2666 119.625 38.1725C119.72 38.0783 119.835 38.0313 119.969 38.0313H123.49C123.632 38.0313 123.747 38.075 123.835 38.1624C123.929 38.2498 123.976 38.3641 123.976 38.5053C123.976 38.6398 123.929 38.7508 123.835 38.8382C123.747 38.9189 123.632 38.9592 123.49 38.9592H120.485V41.0168H123.035C123.177 41.0168 123.292 41.0606 123.379 41.1479C123.474 41.2353 123.521 41.3463 123.521 41.4808C123.521 41.622 123.474 41.733 123.379 41.8136C123.292 41.8943 123.177 41.9347 123.035 41.9347H120.485V44.1638H123.49ZM130.648 44.2848C130.715 44.3318 130.77 44.3924 130.81 44.4663C130.851 44.5336 130.871 44.6042 130.871 44.6782C130.871 44.8194 130.823 44.9236 130.729 44.9908C130.641 45.0581 130.533 45.0917 130.405 45.0917C130.277 45.0917 130.169 45.0648 130.082 45.011C129.879 44.8967 129.714 44.7118 129.586 44.4563C129.457 44.2007 129.393 43.8242 129.393 43.3266C129.393 42.9904 129.292 42.7416 129.09 42.5802C128.888 42.4188 128.624 42.3381 128.301 42.3381H126.257V44.6075C126.257 44.7488 126.216 44.8664 126.135 44.9606C126.054 45.048 125.949 45.0917 125.821 45.0917C125.666 45.0917 125.531 45.0446 125.417 44.9505C125.308 44.8563 125.255 44.7421 125.255 44.6075V38.5154C125.255 38.3809 125.302 38.2666 125.396 38.1725C125.49 38.0783 125.605 38.0313 125.74 38.0313H128.584C128.948 38.0313 129.282 38.1221 129.586 38.3036C129.889 38.4785 130.132 38.7239 130.314 39.0399C130.496 39.3492 130.588 39.6989 130.588 40.0889C130.588 40.4655 130.486 40.8185 130.284 41.1479C130.082 41.4707 129.821 41.7128 129.505 41.8742C129.754 42.0019 129.95 42.1801 130.092 42.4087C130.24 42.6373 130.321 42.903 130.335 43.2056C130.361 43.5888 130.392 43.8511 130.426 43.9923C130.459 44.1268 130.533 44.2243 130.648 44.2848ZM128.564 41.501C128.732 41.4875 128.89 41.4203 129.039 41.2992C129.194 41.1782 129.319 41.0168 129.414 40.8151C129.508 40.6067 129.555 40.3747 129.555 40.1191C129.555 39.7964 129.454 39.5241 129.252 39.3022C129.056 39.0736 128.817 38.9592 128.533 38.9592H126.257V41.501H128.564ZM140.686 44.2545C140.828 44.3823 140.899 44.5202 140.899 44.6681C140.899 44.7622 140.862 44.8563 140.788 44.9505C140.713 45.0446 140.615 45.0917 140.494 45.0917C140.379 45.0917 140.285 45.0648 140.211 45.011L139.28 44.2444C138.646 44.8765 137.849 45.1926 136.892 45.1926C136.426 45.1926 136.001 45.0883 135.617 44.8799C135.239 44.6647 134.942 44.3857 134.726 44.0427C134.51 43.6931 134.402 43.3266 134.402 42.9433C134.402 42.4726 134.527 42.0557 134.777 41.6926C135.026 41.3228 135.401 41.0336 135.9 40.8252C135.765 40.6302 135.664 40.4453 135.596 40.2704C135.529 40.0956 135.495 39.914 135.495 39.7258C135.495 39.3963 135.58 39.097 135.748 38.8281C135.917 38.5524 136.16 38.3339 136.477 38.1725C136.794 38.0111 137.161 37.9304 137.58 37.9304C138.045 37.9304 138.454 38.0145 138.804 38.1826C139.162 38.344 139.405 38.5524 139.533 38.8079C139.58 38.9021 139.604 39.0063 139.604 39.1206C139.604 39.2282 139.563 39.3189 139.482 39.3929C139.408 39.4669 139.307 39.5039 139.179 39.5039C139.03 39.5039 138.922 39.4501 138.855 39.3425C138.713 39.1408 138.538 38.9929 138.329 38.8987C138.126 38.7978 137.877 38.7474 137.58 38.7474C137.236 38.7474 136.969 38.8348 136.78 39.0097C136.598 39.1845 136.507 39.4097 136.507 39.6854C136.507 39.9275 136.595 40.173 136.77 40.4217C136.946 40.6705 137.195 40.9698 137.519 41.3194L137.701 41.5211C138.092 41.9515 138.571 42.4188 139.138 42.9231C139.314 42.5802 139.435 42.2036 139.502 41.7935C139.536 41.5985 139.671 41.501 139.907 41.501C140.042 41.501 140.15 41.5581 140.231 41.6724C140.318 41.78 140.352 41.9078 140.332 42.0557C140.245 42.6071 140.076 43.098 139.826 43.5283C140.103 43.7704 140.389 44.0125 140.686 44.2545ZM137.084 44.2848C137.677 44.2848 138.187 44.0797 138.612 43.6695C137.89 43.0375 137.28 42.439 136.78 41.8742C136.686 41.7733 136.574 41.6456 136.446 41.4909C136.062 41.6052 135.789 41.7733 135.627 41.9952C135.465 42.2171 135.384 42.486 135.384 42.8021C135.384 43.0643 135.445 43.3064 135.566 43.5283C135.688 43.7502 135.876 43.9318 136.133 44.073C136.389 44.2142 136.706 44.2848 137.084 44.2848ZM147.776 38.0313C148.41 38.0313 148.953 38.1893 149.405 38.5053C149.857 38.8214 150.198 39.2483 150.427 39.7863C150.657 40.3175 150.771 40.9093 150.771 41.5615C150.771 42.2205 150.657 42.8189 150.427 43.3568C150.198 43.888 149.857 44.3117 149.405 44.6277C148.953 44.937 148.41 45.0917 147.776 45.0917H145.286C145.152 45.0917 145.037 45.0446 144.942 44.9505C144.848 44.8563 144.801 44.7421 144.801 44.6075V38.5154C144.801 38.3809 144.848 38.2666 144.942 38.1725C145.037 38.0783 145.152 38.0313 145.286 38.0313H147.776ZM147.674 44.1638C148.363 44.1638 148.879 43.9217 149.223 43.4375C149.567 42.9467 149.739 42.3213 149.739 41.5615C149.739 40.8084 149.564 40.1864 149.213 39.6955C148.868 39.2047 148.356 38.9592 147.674 38.9592H145.802V44.1638H147.674ZM156.061 44.1638C156.203 44.1638 156.318 44.2108 156.405 44.305C156.5 44.3991 156.547 44.5101 156.547 44.6378C156.547 44.7723 156.5 44.8833 156.405 44.9707C156.318 45.0513 156.203 45.0917 156.061 45.0917H152.54C152.405 45.0917 152.29 45.0446 152.196 44.9505C152.101 44.8563 152.054 44.7421 152.054 44.6075V38.5154C152.054 38.3809 152.101 38.2666 152.196 38.1725C152.29 38.0783 152.405 38.0313 152.54 38.0313H156.061C156.203 38.0313 156.318 38.075 156.405 38.1624C156.5 38.2498 156.547 38.3641 156.547 38.5053C156.547 38.6398 156.5 38.7508 156.405 38.8382C156.318 38.9189 156.203 38.9592 156.061 38.9592H153.056V41.0168H155.606C155.748 41.0168 155.863 41.0606 155.95 41.1479C156.045 41.2353 156.092 41.3463 156.092 41.4808C156.092 41.622 156.045 41.733 155.95 41.8136C155.863 41.8943 155.748 41.9347 155.606 41.9347H153.056V44.1638H156.061ZM159.97 45.1926C159.478 45.1926 159.043 45.1253 158.665 44.9908C158.288 44.8496 157.926 44.6243 157.582 44.315C157.44 44.194 157.37 44.0562 157.37 43.9015C157.37 43.7805 157.417 43.6729 157.511 43.5787C157.606 43.4779 157.717 43.4275 157.845 43.4275C157.96 43.4275 158.058 43.4644 158.139 43.5384C158.409 43.7872 158.685 43.9721 158.968 44.0931C159.259 44.2075 159.586 44.2646 159.95 44.2646C160.375 44.2646 160.733 44.1671 161.023 43.9721C161.32 43.7771 161.468 43.5317 161.468 43.2358C161.461 42.8862 161.313 42.6172 161.023 42.4289C160.739 42.2339 160.304 42.0725 159.717 41.9448C159.023 41.8036 158.486 41.5716 158.108 41.2488C157.738 40.9261 157.552 40.4789 157.552 39.9073C157.552 39.5106 157.657 39.1643 157.865 38.8684C158.075 38.5659 158.365 38.3339 158.736 38.1725C159.107 38.0111 159.525 37.9304 159.99 37.9304C160.409 37.9304 160.804 37.9976 161.174 38.1321C161.546 38.2666 161.846 38.4448 162.075 38.6667C162.23 38.8012 162.308 38.9458 162.308 39.1004C162.308 39.2215 162.261 39.329 162.166 39.4232C162.079 39.5174 161.971 39.5644 161.842 39.5644C161.748 39.5644 161.67 39.5375 161.61 39.4837C161.435 39.3089 161.192 39.161 160.881 39.0399C160.571 38.9189 160.274 38.8584 159.99 38.8584C159.539 38.8584 159.178 38.9525 158.908 39.1408C158.645 39.3223 158.513 39.5644 158.513 39.867C158.513 40.1965 158.645 40.4486 158.908 40.6235C159.178 40.7983 159.576 40.9462 160.102 41.0673C160.628 41.1816 161.057 41.316 161.387 41.4707C161.724 41.6254 161.984 41.8405 162.166 42.1162C162.348 42.3919 162.439 42.7517 162.439 43.1955C162.439 43.5855 162.328 43.9318 162.105 44.2344C161.89 44.5369 161.593 44.7723 161.215 44.9404C160.838 45.1085 160.423 45.1926 159.97 45.1926ZM164.717 44.5975C164.717 44.7387 164.666 44.8563 164.565 44.9505C164.464 45.0446 164.346 45.0917 164.211 45.0917C164.063 45.0917 163.941 45.0446 163.846 44.9505C163.759 44.8563 163.715 44.7387 163.715 44.5975V38.5154C163.715 38.3809 163.762 38.2666 163.857 38.1725C163.951 38.0783 164.073 38.0313 164.221 38.0313C164.356 38.0313 164.47 38.0783 164.565 38.1725C164.666 38.2666 164.717 38.3809 164.717 38.5154V44.5975ZM171.594 41.3799C171.729 41.3799 171.84 41.427 171.928 41.5211C172.023 41.6153 172.07 41.7296 172.07 41.8641V44.1335C172.07 44.315 171.989 44.4563 171.827 44.5571C171.517 44.7588 171.176 44.9168 170.805 45.0312C170.434 45.1387 170.052 45.1926 169.661 45.1926C168.987 45.1926 168.366 45.0312 167.799 44.7084C167.239 44.3856 166.798 43.9486 166.474 43.3972C166.15 42.8391 165.988 42.2272 165.988 41.5615C165.988 40.8958 166.15 40.2872 166.474 39.7359C166.798 39.1777 167.239 38.7373 167.799 38.4146C168.366 38.0918 168.987 37.9304 169.661 37.9304C169.999 37.9304 170.323 37.9674 170.633 38.0414C170.95 38.1154 171.233 38.2263 171.483 38.3742C171.564 38.4213 171.624 38.4785 171.665 38.5457C171.705 38.6129 171.726 38.6869 171.726 38.7676C171.726 38.9021 171.679 39.0197 171.584 39.1206C171.496 39.2148 171.388 39.2618 171.26 39.2618C171.159 39.2618 171.071 39.2383 170.997 39.1912C170.558 38.9895 170.113 38.8886 169.661 38.8886C169.176 38.8886 168.73 39.0063 168.326 39.2416C167.927 39.477 167.611 39.7998 167.374 40.2099C167.145 40.6201 167.03 41.0706 167.03 41.5615C167.03 42.0523 167.145 42.5029 167.374 42.9131C167.611 43.3165 167.927 43.6393 168.326 43.8813C168.73 44.1167 169.176 44.2344 169.661 44.2344C169.89 44.2344 170.13 44.2075 170.38 44.1537C170.636 44.0999 170.855 44.0292 171.038 43.9419V42.3381H169.813C169.678 42.3381 169.564 42.2944 169.469 42.207C169.374 42.1129 169.327 41.9986 169.327 41.8641C169.327 41.7229 169.374 41.6085 169.469 41.5211C169.564 41.427 169.678 41.3799 169.813 41.3799H171.594ZM178.721 38.0313C178.849 38.0313 178.954 38.075 179.035 38.1624C179.115 38.2431 179.156 38.3473 179.156 38.4751V44.5975C179.156 44.7387 179.109 44.8563 179.014 44.9505C178.927 45.0446 178.812 45.0917 178.67 45.0917C178.596 45.0917 178.522 45.0816 178.448 45.0614C178.38 45.0346 178.326 44.9975 178.286 44.9505L174.309 39.7863V44.6479C174.309 44.7756 174.265 44.8833 174.177 44.9707C174.096 45.0513 173.992 45.0917 173.864 45.0917C173.736 45.0917 173.631 45.0513 173.55 44.9707C173.469 44.8833 173.429 44.7756 173.429 44.6479V38.5154C173.429 38.3742 173.473 38.2599 173.56 38.1725C173.655 38.0783 173.77 38.0313 173.904 38.0313C173.985 38.0313 174.063 38.0481 174.137 38.0817C174.211 38.1086 174.268 38.1489 174.309 38.2027L178.276 43.377V38.4751C178.276 38.3473 178.316 38.2431 178.397 38.1624C178.485 38.075 178.593 38.0313 178.721 38.0313ZM184.847 44.1638C184.989 44.1638 185.104 44.2108 185.191 44.305C185.286 44.3991 185.333 44.5101 185.333 44.6378C185.333 44.7723 185.286 44.8833 185.191 44.9707C185.104 45.0513 184.989 45.0917 184.847 45.0917H181.326C181.191 45.0917 181.076 45.0446 180.982 44.9505C180.888 44.8563 180.84 44.7421 180.84 44.6075V38.5154C180.84 38.3809 180.888 38.2666 180.982 38.1725C181.076 38.0783 181.191 38.0313 181.326 38.0313H184.847C184.989 38.0313 185.104 38.075 185.191 38.1624C185.286 38.2498 185.333 38.3641 185.333 38.5053C185.333 38.6398 185.286 38.7508 185.191 38.8382C185.104 38.9189 184.989 38.9592 184.847 38.9592H181.842V41.0168H184.392C184.533 41.0168 184.648 41.0606 184.736 41.1479C184.83 41.2353 184.877 41.3463 184.877 41.4808C184.877 41.622 184.83 41.733 184.736 41.8136C184.648 41.8943 184.533 41.9347 184.392 41.9347H181.842V44.1638H184.847ZM192.005 44.2848C192.072 44.3318 192.126 44.3924 192.167 44.4663C192.207 44.5336 192.227 44.6042 192.227 44.6782C192.227 44.8194 192.18 44.9236 192.086 44.9908C191.998 45.0581 191.89 45.0917 191.762 45.0917C191.633 45.0917 191.526 45.0648 191.438 45.011C191.236 44.8967 191.07 44.7118 190.942 44.4563C190.814 44.2007 190.75 43.8242 190.75 43.3266C190.75 42.9904 190.649 42.7416 190.446 42.5802C190.244 42.4188 189.981 42.3381 189.657 42.3381H187.613V44.6075C187.613 44.7488 187.573 44.8664 187.492 44.9606C187.411 45.048 187.306 45.0917 187.178 45.0917C187.023 45.0917 186.888 45.0446 186.773 44.9505C186.665 44.8563 186.611 44.7421 186.611 44.6075V38.5154C186.611 38.3809 186.658 38.2666 186.753 38.1725C186.847 38.0783 186.962 38.0313 187.097 38.0313H189.94C190.305 38.0313 190.639 38.1221 190.942 38.3036C191.246 38.4785 191.489 38.7239 191.671 39.0399C191.853 39.3492 191.944 39.6989 191.944 40.0889C191.944 40.4655 191.843 40.8185 191.64 41.1479C191.438 41.4707 191.178 41.7128 190.861 41.8742C191.111 42.0019 191.307 42.1801 191.448 42.4087C191.596 42.6373 191.677 42.903 191.691 43.2056C191.718 43.5888 191.748 43.8511 191.782 43.9923C191.815 44.1268 191.89 44.2243 192.005 44.2848ZM189.92 41.501C190.089 41.4875 190.247 41.4203 190.396 41.2992C190.551 41.1782 190.676 41.0168 190.77 40.8151C190.864 40.6067 190.912 40.3747 190.912 40.1191C190.912 39.7964 190.811 39.5241 190.608 39.3022C190.413 39.0736 190.173 38.9592 189.89 38.9592H187.613V41.501H189.92Z" fill="black"/>
<path d="M87.1905 23.7325L87.1703 15.26L83.0012 22.2398H81.5238L77.375 15.4416V23.7325H74.2988V9.61171H77.0107L82.3131 18.3868L87.5345 9.61171H90.2262L90.2667 23.7325H87.1905ZM93.4054 12.8797H96.5625V23.7325H93.4054V12.8797ZM94.9839 11.3667C94.4036 11.3667 93.9316 11.1986 93.5673 10.8624C93.203 10.5262 93.0208 10.1093 93.0208 9.61171C93.0208 9.1141 93.203 8.69723 93.5673 8.361C93.9316 8.02477 94.4036 7.85669 94.9839 7.85669C95.5637 7.85669 96.0363 8.01807 96.4006 8.34083C96.7649 8.66359 96.947 9.06705 96.947 9.55119C96.947 10.0757 96.7649 10.5128 96.4006 10.8624C96.0363 11.1986 95.5637 11.3667 94.9839 11.3667ZM104.754 23.8939C103.594 23.8939 102.548 23.6585 101.617 23.1879C100.7 22.7037 99.978 22.038 99.4518 21.1908C98.9393 20.3435 98.6828 19.3819 98.6828 18.3061C98.6828 17.2302 98.9393 16.2687 99.4518 15.4214C99.978 14.5742 100.7 13.9152 101.617 13.4445C102.548 12.9604 103.594 12.7183 104.754 12.7183C105.901 12.7183 106.899 12.9604 107.749 13.4445C108.613 13.9152 109.24 14.5943 109.632 15.4819L107.183 16.7932C106.616 15.798 105.8 15.3004 104.734 15.3004C103.911 15.3004 103.23 15.5693 102.69 16.1073C102.151 16.6452 101.88 17.3782 101.88 18.3061C101.88 19.234 102.151 19.967 102.69 20.5049C103.23 21.0429 103.911 21.3118 104.734 21.3118C105.814 21.3118 106.63 20.8142 107.183 19.819L109.632 21.1504C109.24 22.0112 108.613 22.6836 107.749 23.1677C106.899 23.6518 105.901 23.8939 104.754 23.8939ZM117.988 12.7183C119.338 12.7183 120.424 13.1217 121.246 13.9286C122.083 14.7355 122.501 15.9324 122.501 17.5194V23.7325H119.344V18.0035C119.344 17.1428 119.155 16.504 118.777 16.0871C118.4 15.6568 117.854 15.4416 117.138 15.4416C116.342 15.4416 115.708 15.6904 115.236 16.188C114.764 16.6721 114.527 17.3983 114.527 18.3666V23.7325H111.37V8.76446H114.527V14.0093C114.946 13.5924 115.452 13.2764 116.045 13.0612C116.639 12.8326 117.287 12.7183 117.988 12.7183ZM129.755 12.7183C131.441 12.7183 132.736 13.1217 133.64 13.9286C134.545 14.7221 134.996 15.9257 134.996 17.5395V23.7325H132.042V22.381C131.448 23.3896 130.342 23.8939 128.723 23.8939C127.886 23.8939 127.158 23.7527 126.537 23.4703C125.93 23.1879 125.464 22.7979 125.14 22.3003C124.817 21.8027 124.655 21.2378 124.655 20.6058C124.655 19.5971 125.033 18.8037 125.788 18.2254C126.557 17.6471 127.738 17.358 129.33 17.358H131.839C131.839 16.6721 131.63 16.1476 131.212 15.7845C130.793 15.4079 130.166 15.2197 129.33 15.2197C128.749 15.2197 128.176 15.3138 127.61 15.5021C127.057 15.677 126.584 15.919 126.193 16.2283L125.06 14.0295C125.653 13.6126 126.361 13.2898 127.185 13.0612C128.021 12.8326 128.878 12.7183 129.755 12.7183ZM129.512 21.7758C130.052 21.7758 130.53 21.6547 130.949 21.4127C131.367 21.1571 131.664 20.7873 131.839 20.3032V19.1937H129.674C128.379 19.1937 127.731 19.6173 127.731 20.4646C127.731 20.868 127.886 21.1908 128.196 21.4329C128.52 21.6615 128.959 21.7758 129.512 21.7758ZM137.854 8.76446H141.011V23.7325H137.854V8.76446ZM157.157 9.61171V23.7325H153.878V17.943H147.442V23.7325H144.164V9.61171H147.442V15.1793H153.878V9.61171H157.157ZM165.467 23.8939C164.32 23.8939 163.288 23.6585 162.37 23.1879C161.466 22.7037 160.758 22.038 160.245 21.1908C159.733 20.3435 159.476 19.3819 159.476 18.3061C159.476 17.2302 159.733 16.2687 160.245 15.4214C160.758 14.5742 161.466 13.9152 162.37 13.4445C163.288 12.9604 164.32 12.7183 165.467 12.7183C166.614 12.7183 167.639 12.9604 168.543 13.4445C169.447 13.9152 170.155 14.5742 170.668 15.4214C171.18 16.2687 171.437 17.2302 171.437 18.3061C171.437 19.3819 171.18 20.3435 170.668 21.1908C170.155 22.038 169.447 22.7037 168.543 23.1879C167.639 23.6585 166.614 23.8939 165.467 23.8939ZM165.467 21.3118C166.276 21.3118 166.938 21.0429 167.45 20.5049C167.976 19.9535 168.239 19.2206 168.239 18.3061C168.239 17.3916 167.976 16.6654 167.45 16.1275C166.938 15.5761 166.276 15.3004 165.467 15.3004C164.657 15.3004 163.989 15.5761 163.463 16.1275C162.937 16.6654 162.674 17.3916 162.674 18.3061C162.674 19.2206 162.937 19.9535 163.463 20.5049C163.989 21.0429 164.657 21.3118 165.467 21.3118ZM180.165 12.7183C181.514 12.7183 182.601 13.1217 183.423 13.9286C184.26 14.7355 184.678 15.9324 184.678 17.5194V23.7325H181.521V18.0035C181.521 17.1428 181.332 16.504 180.954 16.0871C180.577 15.6568 180.03 15.4416 179.315 15.4416C178.519 15.4416 177.885 15.6904 177.413 16.188C176.941 16.6721 176.704 17.3983 176.704 18.3666V23.7325H173.547V12.8797H176.563V14.1505C176.981 13.6933 177.501 13.3436 178.121 13.1016C178.742 12.846 179.423 12.7183 180.165 12.7183ZM192.92 23.8939C191.76 23.8939 190.714 23.6585 189.783 23.1879C188.866 22.7037 188.144 22.038 187.618 21.1908C187.105 20.3435 186.849 19.3819 186.849 18.3061C186.849 17.2302 187.105 16.2687 187.618 15.4214C188.144 14.5742 188.866 13.9152 189.783 13.4445C190.714 12.9604 191.76 12.7183 192.92 12.7183C194.067 12.7183 195.065 12.9604 195.915 13.4445C196.779 13.9152 197.407 14.5943 197.798 15.4819L195.349 16.7932C194.782 15.798 193.966 15.3004 192.9 15.3004C192.077 15.3004 191.396 15.5693 190.856 16.1073C190.317 16.6452 190.046 17.3782 190.046 18.3061C190.046 19.234 190.317 19.967 190.856 20.5049C191.396 21.0429 192.077 21.3118 192.9 21.3118C193.98 21.3118 194.796 20.8142 195.349 19.819L197.798 21.1504C197.407 22.0112 196.779 22.6836 195.915 23.1677C195.065 23.6518 194.067 23.8939 192.92 23.8939Z" fill="black"/>
</g>
<defs>
<clipPath id="logo">
<rect width="200" height="56.9579" fill="white"/>
</clipPath>
</defs>
</svg>
