<svg width="331" height="96" viewBox="0 0 331 96" fill="none" xmlns="http://www.w3.org/2000/svg">
<circle cx="48" cy="48" r="48" fill="white"/>
<path d="M34.7713 82.8316C34.58 82.8316 34.3857 82.7952 34.1975 82.7193C33.4232 82.4035 33.0497 81.5169 33.3685 80.7397L60.695 13.9416C61.0138 13.1673 61.9065 12.7969 62.6747 13.1127C63.4489 13.4285 63.8224 14.3151 63.5036 15.0923L36.1771 81.8904C35.9372 82.4764 35.3695 82.8316 34.7713 82.8316Z" fill="#04776A"/>
<path d="M65.1341 70.6865C64.7849 70.6865 64.4327 70.5651 64.1473 70.3192C63.5097 69.7726 63.4368 68.8162 63.9833 68.1786L81.3508 47.9145L63.9803 27.6473C63.4338 27.0128 63.5066 26.0533 64.1442 25.5068C64.7819 24.9602 65.7383 25.0331 66.2848 25.6707L84.5025 46.9247C84.9913 47.4924 84.9913 48.3305 84.5025 48.8982L66.2848 70.1522C65.9873 70.5074 65.5622 70.6865 65.1341 70.6865Z" fill="#04776A"/>
<path d="M31.735 70.6866C31.3069 70.6866 30.8818 70.5074 30.5843 70.1552L12.3666 48.9013C11.8778 48.3335 11.8778 47.4955 12.3666 46.9277L30.5843 25.6738C31.1308 25.0362 32.0903 24.9633 32.7249 25.5098C33.3594 26.0533 33.4353 27.0128 32.8858 27.6474L15.5183 47.9145L32.8888 68.1816C33.4353 68.8162 33.3625 69.7757 32.7249 70.3222C32.4364 70.5651 32.0842 70.6866 31.735 70.6866Z" fill="#04776A"/>
<path d="M125.409 64.1C126.474 64.1 127.387 64.3663 128.146 64.899C128.905 65.4317 129.478 66.1513 129.863 67.058C130.248 67.9533 130.441 68.9507 130.441 70.05C130.441 71.1607 130.248 72.1693 129.863 73.076C129.478 73.9713 128.905 74.6853 128.146 75.218C127.387 75.7393 126.474 76 125.409 76H121.227C121 76 120.808 75.9207 120.649 75.762C120.49 75.6033 120.411 75.4107 120.411 75.184V64.916C120.411 64.6893 120.49 64.4967 120.649 64.338C120.808 64.1793 121 64.1 121.227 64.1H125.409ZM125.239 74.436C126.395 74.436 127.262 74.028 127.84 73.212C128.418 72.3847 128.707 71.3307 128.707 70.05C128.707 68.7807 128.412 67.7323 127.823 66.905C127.245 66.0777 126.384 65.664 125.239 65.664H122.094V74.436H125.239ZM139.329 74.436C139.567 74.436 139.759 74.5153 139.907 74.674C140.065 74.8327 140.145 75.0197 140.145 75.235C140.145 75.4617 140.065 75.6487 139.907 75.796C139.759 75.932 139.567 76 139.329 76H133.413C133.186 76 132.993 75.9207 132.835 75.762C132.676 75.6033 132.597 75.4107 132.597 75.184V64.916C132.597 64.6893 132.676 64.4967 132.835 64.338C132.993 64.1793 133.186 64.1 133.413 64.1H139.329C139.567 64.1 139.759 64.1737 139.907 64.321C140.065 64.4683 140.145 64.661 140.145 64.899C140.145 65.1257 140.065 65.3127 139.907 65.46C139.759 65.596 139.567 65.664 139.329 65.664H134.28V69.132H138.564C138.802 69.132 138.994 69.2057 139.142 69.353C139.3 69.5003 139.38 69.6873 139.38 69.914C139.38 70.152 139.3 70.339 139.142 70.475C138.994 70.611 138.802 70.679 138.564 70.679H134.28V74.436H139.329ZM150.945 64.083C151.172 64.083 151.364 64.1567 151.523 64.304C151.693 64.4513 151.778 64.6327 151.778 64.848C151.778 64.9613 151.75 65.086 151.693 65.222L147.358 75.473C147.279 75.643 147.165 75.7733 147.018 75.864C146.871 75.9547 146.718 76 146.559 76C146.412 75.9887 146.27 75.9433 146.134 75.864C146.009 75.7733 145.907 75.6487 145.828 75.49L141.493 65.222C141.448 65.1313 141.425 65.0123 141.425 64.865C141.425 64.627 141.51 64.4343 141.68 64.287C141.85 64.1397 142.037 64.066 142.241 64.066C142.581 64.066 142.83 64.2473 142.989 64.61L146.695 73.365L150.197 64.593C150.276 64.4343 150.378 64.3097 150.503 64.219C150.639 64.1283 150.786 64.083 150.945 64.083ZM160.446 74.436C160.684 74.436 160.876 74.5153 161.024 74.674C161.182 74.8327 161.262 75.0197 161.262 75.235C161.262 75.4617 161.182 75.6487 161.024 75.796C160.876 75.932 160.684 76 160.446 76H154.53C154.303 76 154.11 75.9207 153.952 75.762C153.793 75.6033 153.714 75.4107 153.714 75.184V64.916C153.714 64.6893 153.793 64.4967 153.952 64.338C154.11 64.1793 154.303 64.1 154.53 64.1H160.446C160.684 64.1 160.876 64.1737 161.024 64.321C161.182 64.4683 161.262 64.661 161.262 64.899C161.262 65.1257 161.182 65.3127 161.024 65.46C160.876 65.596 160.684 65.664 160.446 65.664H155.397V69.132H159.681C159.919 69.132 160.111 69.2057 160.259 69.353C160.417 69.5003 160.497 69.6873 160.497 69.914C160.497 70.152 160.417 70.339 160.259 70.475C160.111 70.611 159.919 70.679 159.681 70.679H155.397V74.436H160.446ZM169.971 74.419C170.209 74.419 170.402 74.4927 170.549 74.64C170.708 74.7873 170.787 74.98 170.787 75.218C170.787 75.4447 170.708 75.6317 170.549 75.779C170.402 75.9263 170.209 76 169.971 76H164.225C163.987 76 163.789 75.9207 163.63 75.762C163.483 75.6033 163.409 75.4107 163.409 75.184V64.916C163.409 64.6893 163.488 64.4967 163.647 64.338C163.806 64.1793 164.01 64.1 164.259 64.1C164.486 64.1 164.678 64.1793 164.837 64.338C165.007 64.4967 165.092 64.6893 165.092 64.916V74.419H169.971ZM183.402 70.05C183.402 71.1947 183.152 72.2317 182.654 73.161C182.166 74.0903 181.486 74.827 180.614 75.371C179.741 75.9037 178.755 76.17 177.656 76.17C176.556 76.17 175.57 75.9037 174.698 75.371C173.825 74.827 173.139 74.0903 172.641 73.161C172.153 72.2317 171.91 71.1947 171.91 70.05C171.91 68.9053 172.153 67.8683 172.641 66.939C173.139 66.0097 173.825 65.2787 174.698 64.746C175.57 64.202 176.556 63.93 177.656 63.93C178.755 63.93 179.741 64.202 180.614 64.746C181.486 65.2787 182.166 66.0097 182.654 66.939C183.152 67.8683 183.402 68.9053 183.402 70.05ZM181.651 70.05C181.651 69.2 181.481 68.435 181.141 67.755C180.801 67.0637 180.325 66.5253 179.713 66.14C179.112 65.7433 178.426 65.545 177.656 65.545C176.885 65.545 176.194 65.7377 175.582 66.123C174.981 66.5083 174.511 67.0467 174.171 67.738C173.831 68.418 173.661 69.1887 173.661 70.05C173.661 70.9 173.831 71.6707 174.171 72.362C174.511 73.042 174.981 73.5803 175.582 73.977C176.194 74.3623 176.885 74.555 177.656 74.555C178.426 74.555 179.112 74.3623 179.713 73.977C180.325 73.5803 180.801 73.042 181.141 72.362C181.481 71.6707 181.651 70.9 181.651 70.05ZM190.299 64.1C190.9 64.1 191.455 64.2643 191.965 64.593C192.475 64.9103 192.877 65.3467 193.172 65.902C193.478 66.4573 193.631 67.0693 193.631 67.738C193.631 68.4067 193.478 69.0243 193.172 69.591C192.877 70.1577 192.475 70.6053 191.965 70.934C191.455 71.2627 190.9 71.427 190.299 71.427H187.103V75.184C187.103 75.4107 187.029 75.6033 186.882 75.762C186.735 75.9207 186.548 76 186.321 76C186.083 76 185.89 75.9263 185.743 75.779C185.607 75.6203 185.539 75.422 185.539 75.184V64.916C185.539 64.6893 185.618 64.4967 185.777 64.338C185.936 64.1793 186.128 64.1 186.355 64.1H190.299ZM190.299 69.88C190.605 69.88 190.888 69.7837 191.149 69.591C191.41 69.387 191.614 69.1207 191.761 68.792C191.92 68.4633 191.999 68.112 191.999 67.738C191.999 67.16 191.829 66.6727 191.489 66.276C191.16 65.868 190.764 65.664 190.299 65.664H187.103V69.88H190.299ZM202.464 74.436C202.702 74.436 202.895 74.5153 203.042 74.674C203.201 74.8327 203.28 75.0197 203.28 75.235C203.28 75.4617 203.201 75.6487 203.042 75.796C202.895 75.932 202.702 76 202.464 76H196.548C196.322 76 196.129 75.9207 195.97 75.762C195.812 75.6033 195.732 75.4107 195.732 75.184V64.916C195.732 64.6893 195.812 64.4967 195.97 64.338C196.129 64.1793 196.322 64.1 196.548 64.1H202.464C202.702 64.1 202.895 64.1737 203.042 64.321C203.201 64.4683 203.28 64.661 203.28 64.899C203.28 65.1257 203.201 65.3127 203.042 65.46C202.895 65.596 202.702 65.664 202.464 65.664H197.415V69.132H201.699C201.937 69.132 202.13 69.2057 202.277 69.353C202.436 69.5003 202.515 69.6873 202.515 69.914C202.515 70.152 202.436 70.339 202.277 70.475C202.13 70.611 201.937 70.679 201.699 70.679H197.415V74.436H202.464ZM214.489 74.64C214.602 74.7193 214.693 74.8213 214.761 74.946C214.829 75.0593 214.863 75.1783 214.863 75.303C214.863 75.541 214.783 75.7167 214.625 75.83C214.477 75.9433 214.296 76 214.081 76C213.865 76 213.684 75.9547 213.537 75.864C213.197 75.6713 212.919 75.3597 212.704 74.929C212.488 74.4983 212.381 73.8637 212.381 73.025C212.381 72.4583 212.211 72.039 211.871 71.767C211.531 71.495 211.089 71.359 210.545 71.359H207.111V75.184C207.111 75.422 207.043 75.6203 206.907 75.779C206.771 75.9263 206.595 76 206.38 76C206.119 76 205.892 75.9207 205.7 75.762C205.518 75.6033 205.428 75.4107 205.428 75.184V64.916C205.428 64.6893 205.507 64.4967 205.666 64.338C205.824 64.1793 206.017 64.1 206.244 64.1H211.021C211.633 64.1 212.194 64.253 212.704 64.559C213.214 64.8537 213.622 65.2673 213.928 65.8C214.234 66.3213 214.387 66.9107 214.387 67.568C214.387 68.2027 214.217 68.7977 213.877 69.353C213.537 69.897 213.1 70.305 212.568 70.577C212.987 70.7923 213.316 71.0927 213.554 71.478C213.803 71.8633 213.939 72.311 213.962 72.821C214.007 73.467 214.058 73.909 214.115 74.147C214.171 74.3737 214.296 74.538 214.489 74.64ZM210.987 69.948C211.27 69.9253 211.536 69.812 211.786 69.608C212.046 69.404 212.256 69.132 212.415 68.792C212.573 68.4407 212.653 68.0497 212.653 67.619C212.653 67.075 212.483 66.616 212.143 66.242C211.814 65.8567 211.412 65.664 210.936 65.664H207.111V69.948H210.987ZM231.353 74.589C231.591 74.8043 231.71 75.0367 231.71 75.286C231.71 75.4447 231.648 75.6033 231.523 75.762C231.398 75.9207 231.234 76 231.03 76C230.837 76 230.679 75.9547 230.554 75.864L228.99 74.572C227.925 75.6373 226.587 76.17 224.978 76.17C224.196 76.17 223.482 75.9943 222.836 75.643C222.201 75.2803 221.703 74.81 221.34 74.232C220.977 73.6427 220.796 73.025 220.796 72.379C220.796 71.5857 221.006 70.883 221.425 70.271C221.844 69.6477 222.473 69.1603 223.312 68.809C223.085 68.4803 222.915 68.1687 222.802 67.874C222.689 67.5793 222.632 67.2733 222.632 66.956C222.632 66.4007 222.774 65.8963 223.057 65.443C223.34 64.9783 223.748 64.61 224.281 64.338C224.814 64.066 225.431 63.93 226.134 63.93C226.916 63.93 227.602 64.0717 228.191 64.355C228.792 64.627 229.2 64.9783 229.415 65.409C229.494 65.5677 229.534 65.7433 229.534 65.936C229.534 66.1173 229.466 66.2703 229.33 66.395C229.205 66.5197 229.035 66.582 228.82 66.582C228.571 66.582 228.389 66.4913 228.276 66.31C228.038 65.97 227.743 65.7207 227.392 65.562C227.052 65.392 226.633 65.307 226.134 65.307C225.556 65.307 225.108 65.4543 224.791 65.749C224.485 66.0437 224.332 66.4233 224.332 66.888C224.332 67.296 224.479 67.7097 224.774 68.129C225.069 68.5483 225.488 69.0527 226.032 69.642L226.338 69.982C226.995 70.7073 227.8 71.495 228.752 72.345C229.047 71.767 229.251 71.1323 229.364 70.441C229.421 70.1123 229.647 69.948 230.044 69.948C230.271 69.948 230.452 70.0443 230.588 70.237C230.735 70.4183 230.792 70.6337 230.758 70.883C230.611 71.8123 230.327 72.6397 229.908 73.365C230.373 73.773 230.854 74.181 231.353 74.589ZM225.301 74.64C226.298 74.64 227.154 74.2943 227.868 73.603C226.655 72.5377 225.63 71.529 224.791 70.577C224.632 70.407 224.445 70.1917 224.23 69.931C223.584 70.1237 223.125 70.407 222.853 70.781C222.581 71.155 222.445 71.6083 222.445 72.141C222.445 72.583 222.547 72.991 222.751 73.365C222.955 73.739 223.272 74.045 223.703 74.283C224.134 74.521 224.666 74.64 225.301 74.64ZM243.263 64.1C244.329 64.1 245.241 64.3663 246 64.899C246.76 65.4317 247.332 66.1513 247.717 67.058C248.103 67.9533 248.295 68.9507 248.295 70.05C248.295 71.1607 248.103 72.1693 247.717 73.076C247.332 73.9713 246.76 74.6853 246 75.218C245.241 75.7393 244.329 76 243.263 76H239.081C238.855 76 238.662 75.9207 238.503 75.762C238.345 75.6033 238.265 75.4107 238.265 75.184V64.916C238.265 64.6893 238.345 64.4967 238.503 64.338C238.662 64.1793 238.855 64.1 239.081 64.1H243.263ZM243.093 74.436C244.249 74.436 245.116 74.028 245.694 73.212C246.272 72.3847 246.561 71.3307 246.561 70.05C246.561 68.7807 246.267 67.7323 245.677 66.905C245.099 66.0777 244.238 65.664 243.093 65.664H239.948V74.436H243.093ZM257.183 74.436C257.421 74.436 257.614 74.5153 257.761 74.674C257.92 74.8327 257.999 75.0197 257.999 75.235C257.999 75.4617 257.92 75.6487 257.761 75.796C257.614 75.932 257.421 76 257.183 76H251.267C251.04 76 250.848 75.9207 250.689 75.762C250.53 75.6033 250.451 75.4107 250.451 75.184V64.916C250.451 64.6893 250.53 64.4967 250.689 64.338C250.848 64.1793 251.04 64.1 251.267 64.1H257.183C257.421 64.1 257.614 64.1737 257.761 64.321C257.92 64.4683 257.999 64.661 257.999 64.899C257.999 65.1257 257.92 65.3127 257.761 65.46C257.614 65.596 257.421 65.664 257.183 65.664H252.134V69.132H256.418C256.656 69.132 256.849 69.2057 256.996 69.353C257.155 69.5003 257.234 69.6873 257.234 69.914C257.234 70.152 257.155 70.339 256.996 70.475C256.849 70.611 256.656 70.679 256.418 70.679H252.134V74.436H257.183ZM263.75 76.17C262.923 76.17 262.192 76.0567 261.557 75.83C260.923 75.592 260.316 75.2123 259.738 74.691C259.5 74.487 259.381 74.2547 259.381 73.994C259.381 73.79 259.461 73.6087 259.619 73.45C259.778 73.28 259.965 73.195 260.18 73.195C260.373 73.195 260.537 73.2573 260.673 73.382C261.127 73.8013 261.591 74.113 262.067 74.317C262.555 74.5097 263.104 74.606 263.716 74.606C264.43 74.606 265.031 74.4417 265.518 74.113C266.017 73.7843 266.266 73.3707 266.266 72.872C266.255 72.2827 266.006 71.8293 265.518 71.512C265.042 71.1833 264.311 70.9113 263.325 70.696C262.158 70.458 261.257 70.067 260.622 69.523C259.999 68.979 259.687 68.2253 259.687 67.262C259.687 66.5933 259.863 66.0097 260.214 65.511C260.566 65.001 261.053 64.61 261.676 64.338C262.3 64.066 263.002 63.93 263.784 63.93C264.487 63.93 265.15 64.0433 265.773 64.27C266.397 64.4967 266.901 64.797 267.286 65.171C267.547 65.3977 267.677 65.6413 267.677 65.902C267.677 66.106 267.598 66.2873 267.439 66.446C267.292 66.6047 267.111 66.684 266.895 66.684C266.737 66.684 266.606 66.6387 266.504 66.548C266.21 66.2533 265.802 66.004 265.28 65.8C264.759 65.596 264.26 65.494 263.784 65.494C263.025 65.494 262.419 65.6527 261.965 65.97C261.523 66.276 261.302 66.684 261.302 67.194C261.302 67.7493 261.523 68.1743 261.965 68.469C262.419 68.7637 263.087 69.013 263.971 69.217C264.855 69.4097 265.575 69.6363 266.13 69.897C266.697 70.1577 267.133 70.5203 267.439 70.985C267.745 71.4497 267.898 72.056 267.898 72.804C267.898 73.4613 267.711 74.045 267.337 74.555C266.975 75.065 266.476 75.4617 265.841 75.745C265.207 76.0283 264.51 76.17 263.75 76.17ZM271.724 75.167C271.724 75.405 271.639 75.6033 271.469 75.762C271.299 75.9207 271.101 76 270.874 76C270.625 76 270.421 75.9207 270.262 75.762C270.115 75.6033 270.041 75.405 270.041 75.167V64.916C270.041 64.6893 270.12 64.4967 270.279 64.338C270.438 64.1793 270.642 64.1 270.891 64.1C271.118 64.1 271.31 64.1793 271.469 64.338C271.639 64.4967 271.724 64.6893 271.724 64.916V75.167ZM283.278 69.744C283.505 69.744 283.692 69.8233 283.839 69.982C283.998 70.1407 284.077 70.3333 284.077 70.56V74.385C284.077 74.691 283.941 74.929 283.669 75.099C283.148 75.439 282.575 75.7053 281.952 75.898C281.329 76.0793 280.688 76.17 280.031 76.17C278.898 76.17 277.855 75.898 276.903 75.354C275.962 74.81 275.22 74.0733 274.676 73.144C274.132 72.2033 273.86 71.172 273.86 70.05C273.86 68.928 274.132 67.9023 274.676 66.973C275.22 66.0323 275.962 65.29 276.903 64.746C277.855 64.202 278.898 63.93 280.031 63.93C280.598 63.93 281.142 63.9923 281.663 64.117C282.196 64.2417 282.672 64.4287 283.091 64.678C283.227 64.7573 283.329 64.8537 283.397 64.967C283.465 65.0803 283.499 65.205 283.499 65.341C283.499 65.5677 283.42 65.766 283.261 65.936C283.114 66.0947 282.932 66.174 282.717 66.174C282.547 66.174 282.4 66.1343 282.275 66.055C281.538 65.715 280.79 65.545 280.031 65.545C279.215 65.545 278.467 65.7433 277.787 66.14C277.118 66.5367 276.586 67.0807 276.189 67.772C275.804 68.4633 275.611 69.2227 275.611 70.05C275.611 70.8773 275.804 71.6367 276.189 72.328C276.586 73.008 277.118 73.552 277.787 73.96C278.467 74.3567 279.215 74.555 280.031 74.555C280.416 74.555 280.819 74.5097 281.238 74.419C281.669 74.3283 282.037 74.2093 282.343 74.062V71.359H280.286C280.059 71.359 279.867 71.2853 279.708 71.138C279.549 70.9793 279.47 70.7867 279.47 70.56C279.47 70.322 279.549 70.1293 279.708 69.982C279.867 69.8233 280.059 69.744 280.286 69.744H283.278ZM295.251 64.1C295.467 64.1 295.642 64.1737 295.778 64.321C295.914 64.457 295.982 64.6327 295.982 64.848V75.167C295.982 75.405 295.903 75.6033 295.744 75.762C295.597 75.9207 295.404 76 295.166 76C295.042 76 294.917 75.983 294.792 75.949C294.679 75.9037 294.588 75.8413 294.52 75.762L287.839 67.058V75.252C287.839 75.4673 287.766 75.6487 287.618 75.796C287.482 75.932 287.307 76 287.091 76C286.876 76 286.7 75.932 286.564 75.796C286.428 75.6487 286.36 75.4673 286.36 75.252V64.916C286.36 64.678 286.434 64.4853 286.581 64.338C286.74 64.1793 286.933 64.1 287.159 64.1C287.295 64.1 287.426 64.1283 287.55 64.185C287.675 64.2303 287.771 64.2983 287.839 64.389L294.503 73.11V64.848C294.503 64.6327 294.571 64.457 294.707 64.321C294.855 64.1737 295.036 64.1 295.251 64.1ZM305.543 74.436C305.781 74.436 305.974 74.5153 306.121 74.674C306.28 74.8327 306.359 75.0197 306.359 75.235C306.359 75.4617 306.28 75.6487 306.121 75.796C305.974 75.932 305.781 76 305.543 76H299.627C299.401 76 299.208 75.9207 299.049 75.762C298.891 75.6033 298.811 75.4107 298.811 75.184V64.916C298.811 64.6893 298.891 64.4967 299.049 64.338C299.208 64.1793 299.401 64.1 299.627 64.1H305.543C305.781 64.1 305.974 64.1737 306.121 64.321C306.28 64.4683 306.359 64.661 306.359 64.899C306.359 65.1257 306.28 65.3127 306.121 65.46C305.974 65.596 305.781 65.664 305.543 65.664H300.494V69.132H304.778C305.016 69.132 305.209 69.2057 305.356 69.353C305.515 69.5003 305.594 69.6873 305.594 69.914C305.594 70.152 305.515 70.339 305.356 70.475C305.209 70.611 305.016 70.679 304.778 70.679H300.494V74.436H305.543ZM317.568 74.64C317.681 74.7193 317.772 74.8213 317.84 74.946C317.908 75.0593 317.942 75.1783 317.942 75.303C317.942 75.541 317.862 75.7167 317.704 75.83C317.556 75.9433 317.375 76 317.16 76C316.944 76 316.763 75.9547 316.616 75.864C316.276 75.6713 315.998 75.3597 315.783 74.929C315.567 74.4983 315.46 73.8637 315.46 73.025C315.46 72.4583 315.29 72.039 314.95 71.767C314.61 71.495 314.168 71.359 313.624 71.359H310.19V75.184C310.19 75.422 310.122 75.6203 309.986 75.779C309.85 75.9263 309.674 76 309.459 76C309.198 76 308.971 75.9207 308.779 75.762C308.597 75.6033 308.507 75.4107 308.507 75.184V64.916C308.507 64.6893 308.586 64.4967 308.745 64.338C308.903 64.1793 309.096 64.1 309.323 64.1H314.1C314.712 64.1 315.273 64.253 315.783 64.559C316.293 64.8537 316.701 65.2673 317.007 65.8C317.313 66.3213 317.466 66.9107 317.466 67.568C317.466 68.2027 317.296 68.7977 316.956 69.353C316.616 69.897 316.179 70.305 315.647 70.577C316.066 70.7923 316.395 71.0927 316.633 71.478C316.882 71.8633 317.018 72.311 317.041 72.821C317.086 73.467 317.137 73.909 317.194 74.147C317.25 74.3737 317.375 74.538 317.568 74.64ZM314.066 69.948C314.349 69.9253 314.615 69.812 314.865 69.608C315.125 69.404 315.335 69.132 315.494 68.792C315.652 68.4407 315.732 68.0497 315.732 67.619C315.732 67.075 315.562 66.616 315.222 66.242C314.893 65.8567 314.491 65.664 314.015 65.664H310.19V69.948H314.066Z" fill="white"/>
<path d="M141.48 40L141.446 25.72L134.442 37.484H131.96L124.99 26.026V40H119.822V16.2H124.378L133.286 30.99L142.058 16.2H146.58L146.648 40H141.48ZM151.921 21.708H157.225V40H151.921V21.708ZM154.573 19.158C153.598 19.158 152.805 18.8747 152.193 18.308C151.581 17.7413 151.275 17.0387 151.275 16.2C151.275 15.3613 151.581 14.6587 152.193 14.092C152.805 13.5253 153.598 13.242 154.573 13.242C155.547 13.242 156.341 13.514 156.953 14.058C157.565 14.602 157.871 15.282 157.871 16.098C157.871 16.982 157.565 17.7187 156.953 18.308C156.341 18.8747 155.547 19.158 154.573 19.158ZM170.987 40.272C169.038 40.272 167.281 39.8753 165.717 39.082C164.176 38.266 162.963 37.144 162.079 35.716C161.218 34.288 160.787 32.6673 160.787 30.854C160.787 29.0407 161.218 27.42 162.079 25.992C162.963 24.564 164.176 23.4533 165.717 22.66C167.281 21.844 169.038 21.436 170.987 21.436C172.914 21.436 174.591 21.844 176.019 22.66C177.47 23.4533 178.524 24.598 179.181 26.094L175.067 28.304C174.115 26.6267 172.744 25.788 170.953 25.788C169.571 25.788 168.426 26.2413 167.519 27.148C166.613 28.0547 166.159 29.29 166.159 30.854C166.159 32.418 166.613 33.6533 167.519 34.56C168.426 35.4667 169.571 35.92 170.953 35.92C172.767 35.92 174.138 35.0813 175.067 33.404L179.181 35.648C178.524 37.0987 177.47 38.232 176.019 39.048C174.591 39.864 172.914 40.272 170.987 40.272ZM193.22 21.436C195.487 21.436 197.312 22.116 198.694 23.476C200.1 24.836 200.802 26.8533 200.802 29.528V40H195.498V30.344C195.498 28.8933 195.181 27.8167 194.546 27.114C193.912 26.3887 192.994 26.026 191.792 26.026C190.455 26.026 189.39 26.4453 188.596 27.284C187.803 28.1 187.406 29.324 187.406 30.956V40H182.102V14.772H187.406V23.612C188.109 22.9093 188.959 22.3767 189.956 22.014C190.954 21.6287 192.042 21.436 193.22 21.436ZM212.988 21.436C215.821 21.436 217.997 22.116 219.516 23.476C221.035 24.8133 221.794 26.842 221.794 29.562V40H216.83V37.722C215.833 39.422 213.974 40.272 211.254 40.272C209.849 40.272 208.625 40.034 207.582 39.558C206.562 39.082 205.78 38.4247 205.236 37.586C204.692 36.7473 204.42 35.7953 204.42 34.73C204.42 33.03 205.055 31.6927 206.324 30.718C207.616 29.7433 209.599 29.256 212.274 29.256H216.49C216.49 28.1 216.139 27.216 215.436 26.604C214.733 25.9693 213.679 25.652 212.274 25.652C211.299 25.652 210.336 25.8107 209.384 26.128C208.455 26.4227 207.661 26.8307 207.004 27.352L205.1 23.646C206.097 22.9433 207.287 22.3993 208.67 22.014C210.075 21.6287 211.515 21.436 212.988 21.436ZM212.58 36.702C213.487 36.702 214.291 36.498 214.994 36.09C215.697 35.6593 216.195 35.036 216.49 34.22V32.35H212.852C210.676 32.35 209.588 33.064 209.588 34.492C209.588 35.172 209.849 35.716 210.37 36.124C210.914 36.5093 211.651 36.702 212.58 36.702ZM226.594 14.772H231.898V40H226.594V14.772ZM259.023 16.2V40H253.515V30.242H242.703V40H237.195V16.2H242.703V25.584H253.515V16.2H259.023ZM272.984 40.272C271.057 40.272 269.323 39.8753 267.782 39.082C266.263 38.266 265.073 37.144 264.212 35.716C263.351 34.288 262.92 32.6673 262.92 30.854C262.92 29.0407 263.351 27.42 264.212 25.992C265.073 24.564 266.263 23.4533 267.782 22.66C269.323 21.844 271.057 21.436 272.984 21.436C274.911 21.436 276.633 21.844 278.152 22.66C279.671 23.4533 280.861 24.564 281.722 25.992C282.583 27.42 283.014 29.0407 283.014 30.854C283.014 32.6673 282.583 34.288 281.722 35.716C280.861 37.144 279.671 38.266 278.152 39.082C276.633 39.8753 274.911 40.272 272.984 40.272ZM272.984 35.92C274.344 35.92 275.455 35.4667 276.316 34.56C277.2 33.6307 277.642 32.3953 277.642 30.854C277.642 29.3127 277.2 28.0887 276.316 27.182C275.455 26.2527 274.344 25.788 272.984 25.788C271.624 25.788 270.502 26.2527 269.618 27.182C268.734 28.0887 268.292 29.3127 268.292 30.854C268.292 32.3953 268.734 33.6307 269.618 34.56C270.502 35.4667 271.624 35.92 272.984 35.92ZM297.677 21.436C299.944 21.436 301.769 22.116 303.151 23.476C304.557 24.836 305.259 26.8533 305.259 29.528V40H299.955V30.344C299.955 28.8933 299.638 27.8167 299.003 27.114C298.369 26.3887 297.451 26.026 296.249 26.026C294.912 26.026 293.847 26.4453 293.053 27.284C292.26 28.1 291.863 29.324 291.863 30.956V40H286.559V21.708H291.625V23.85C292.328 23.0793 293.201 22.49 294.243 22.082C295.286 21.6513 296.431 21.436 297.677 21.436ZM319.106 40.272C317.157 40.272 315.4 39.8753 313.836 39.082C312.295 38.266 311.082 37.144 310.198 35.716C309.337 34.288 308.906 32.6673 308.906 30.854C308.906 29.0407 309.337 27.42 310.198 25.992C311.082 24.564 312.295 23.4533 313.836 22.66C315.4 21.844 317.157 21.436 319.106 21.436C321.033 21.436 322.71 21.844 324.138 22.66C325.589 23.4533 326.643 24.598 327.3 26.094L323.186 28.304C322.234 26.6267 320.863 25.788 319.072 25.788C317.69 25.788 316.545 26.2413 315.638 27.148C314.732 28.0547 314.278 29.29 314.278 30.854C314.278 32.418 314.732 33.6533 315.638 34.56C316.545 35.4667 317.69 35.92 319.072 35.92C320.886 35.92 322.257 35.0813 323.186 33.404L327.3 35.648C326.643 37.0987 325.589 38.232 324.138 39.048C322.71 39.864 321.033 40.272 319.106 40.272Z" fill="white"/>
</svg>
