<svg width="36" height="36" viewBox="0 0 36 36" fill="#3D3F4C" xmlns="http://www.w3.org/2000/svg">
<g clip-path="url(#phone)">
<path d="M35.1929 28.4506L29.6332 22.8904C28.5259 21.7874 26.692 21.821 25.5461 22.9673L22.7451 25.7677C22.5681 25.6701 22.385 25.5683 22.1924 25.4602C20.4236 24.4801 18.0027 23.1368 15.4553 20.5875C12.9003 18.0328 11.5557 15.6082 10.5727 13.8383C10.4689 13.6508 10.3695 13.47 10.2714 13.2983L12.1512 11.4212L13.0755 10.4959C14.2232 9.34786 14.2548 7.51454 13.15 6.4084L7.59039 0.847532C6.4856 -0.257051 4.65094 -0.223541 3.50323 0.92448L1.93633 2.50037L1.97915 2.54288C1.45375 3.21328 1.01471 3.98649 0.687991 4.82031C0.386816 5.61399 0.199306 6.37138 0.113566 7.13031C-0.620547 13.2163 2.16056 18.7784 9.70813 26.3261C20.1412 36.7584 28.5488 35.9703 28.9115 35.9318C29.7015 35.8374 30.4586 35.6486 31.2279 35.3498C32.0545 35.0269 32.8272 34.5885 33.4972 34.0642L33.5314 34.0947L35.1188 32.5403C36.2641 31.3925 36.2971 29.5585 35.1929 28.4506Z" fill="inherit"/>
</g>
<defs>
<clipPath id="phone">
<rect width="36" height="36" fill="white"/>
</clipPath>
</defs>
</svg>
