<svg width="36" height="36" viewBox="0 0 36 36" fill="#3D3F4C" xmlns="http://www.w3.org/2000/svg">
<g clip-path="url(#twitter)">
<path d="M11.2514 32.6325C24.8371 32.6325 32.2663 21.3772 32.2663 11.6175C32.2663 11.2978 32.2598 10.9795 32.2455 10.6628C33.6874 9.62019 34.941 8.31913 35.9297 6.83817C34.6064 7.42649 33.1821 7.82227 31.6882 8.00108C33.2131 7.08646 34.384 5.64011 34.936 3.9158C33.5089 4.76175 31.9285 5.37644 30.246 5.7085C28.8982 4.27286 26.9792 3.375 24.8544 3.375C20.7757 3.375 17.468 6.68271 17.468 10.76C17.468 11.3398 17.5328 11.9034 17.6594 12.4442C11.5208 12.1352 6.07736 9.19639 2.43483 4.72714C1.80065 5.81864 1.4348 7.08674 1.4348 8.43971C1.4348 11.002 2.73888 13.2644 4.72164 14.5877C3.50985 14.5503 2.37166 14.2177 1.37657 13.664C1.37548 13.695 1.37548 13.7252 1.37548 13.7582C1.37548 17.3354 3.92129 20.322 7.30124 20.9988C6.68051 21.1677 6.02737 21.2586 5.35363 21.2586C4.87847 21.2586 4.4154 21.2119 3.96523 21.1254C4.90566 24.0601 7.63248 26.1956 10.8652 26.2554C8.33725 28.2368 5.15258 29.417 1.69161 29.417C1.09615 29.417 0.507829 29.383 -0.0703278 29.3149C3.19839 31.41 7.08014 32.6327 11.2517 32.6327" fill="inherit"/>
</g>
<defs>
<clipPath id="twitter">
<rect width="36" height="36" fill="white"/>
</clipPath>
</defs>
</svg>
