<svg width="36" height="36" viewBox="0 0 36 36" fill="#3D3F4C" xmlns="http://www.w3.org/2000/svg">
<g clip-path="url(#whatsapp)">
<path d="M17.1271 0.0208192C7.6195 0.473515 0.116703 8.39147 0.145545 17.9098C0.154327 20.8088 0.854206 23.5452 2.08883 25.9629L0.193242 35.1643C0.0907014 35.662 0.539609 36.0979 1.03406 35.9808L10.0504 33.8446C12.3668 34.9985 14.9686 35.665 17.7222 35.707C27.4399 35.8554 35.5427 28.1394 35.8456 18.4253C36.1703 8.01256 27.5763 -0.476819 17.1271 0.0208192ZM27.8854 27.74C25.2449 30.3805 21.7342 31.8347 18 31.8347C15.8135 31.8347 13.7201 31.3441 11.7779 30.3767L10.5223 29.7512L4.99433 31.0609L6.15793 25.4123L5.53932 24.201C4.53105 22.2263 4.01981 20.0911 4.01981 17.8545C4.01981 14.1203 5.47398 10.6096 8.11447 7.969C10.7314 5.35209 14.2994 3.87424 18.0003 3.87424C21.7344 3.87433 25.245 5.3285 27.8855 7.96891C30.526 10.6094 31.9802 14.1201 31.9803 17.8543C31.9802 21.5552 30.5023 25.1232 27.8854 27.74Z" fill="inherit"/>
<path d="M26.6653 21.7266L23.2068 20.7336C22.7522 20.603 22.2625 20.732 21.9312 21.0696L21.0855 21.9313C20.7289 22.2946 20.1878 22.4113 19.7158 22.2204C18.0798 21.5583 14.6383 18.4984 13.7595 16.9679C13.5059 16.5264 13.5478 15.9744 13.8592 15.5716L14.5975 14.6163C14.8868 14.2421 14.9478 13.7394 14.7565 13.3068L13.3015 10.0159C12.953 9.2277 11.9457 8.99826 11.2877 9.55478C10.3225 10.3712 9.17723 11.6117 9.03801 12.9861C8.79255 15.4092 9.83173 18.4637 13.7614 22.1314C18.3013 26.3687 21.9368 26.9285 24.3039 26.3551C25.6465 26.0299 26.7194 24.7262 27.3966 23.6588C27.8582 22.931 27.4937 21.9645 26.6653 21.7266Z" fill="inherit"/>
</g>
<defs>
<clipPath id="whatsapp">
<rect width="36" height="36" fill="white"/>
</clipPath>
</defs>
</svg>
