<svg width="168" height="151" viewBox="0 0 168 151" fill="none" xmlns="http://www.w3.org/2000/svg">
<path fill-rule="evenodd" clip-rule="evenodd" d="M166.329 78.5846C166.269 78.7512 166.12 79.1692 165.93 79.6952C166.097 79.7761 166.278 79.8624 166.53 79.9835C166.658 80.4483 167.365 80.94 166.935 81.5687C166.548 82.1341 167.57 82.7319 166.789 83.1907C166.922 84.3769 166.087 85.2327 165.536 86.0615C165.037 86.8132 164.916 87.752 164.161 88.405C163.504 88.9731 163.135 89.8743 162.637 90.6313C162.204 90.6511 161.802 90.6682 161.244 90.6932C161.345 91.0144 161.42 91.2554 161.539 91.6352C161.389 91.8037 161.143 92.0822 160.876 92.3837C161.041 92.8906 161.196 93.3672 161.378 93.9267C161.119 94.2223 160.861 94.5159 160.58 94.8365C160.801 94.9155 161.009 94.9892 161.361 95.1149C160.958 95.4013 160.626 95.6369 160.277 95.8845C160.345 95.9641 160.45 96.0872 160.616 96.2801C159.427 96.7225 158.369 95.6573 157.058 96.1721C156.249 96.756 155.648 97.9475 154.445 98.3879C153.981 98.5584 154.378 99.4089 153.582 99.3089C153.299 99.2733 153.509 100.184 152.845 100.007C152.598 100.833 151.861 101.165 151.28 101.685C150.797 102.115 150.357 102.677 149.968 103.238C149.645 103.706 149.299 104.158 148.956 104.613C148.646 105.024 148.282 105.403 148.027 105.845C147.809 106.222 147.828 106.867 147.534 107.037C147.139 107.266 146.869 107.514 146.785 108.046C146.397 107.815 146.16 107.674 145.921 107.532C145.179 107.894 144.436 108.239 143.698 107.332V105.447C142.278 104.648 140.793 103.949 140.128 102.141C140.18 101.544 139.891 100.699 140.465 100.001C139.631 98.3372 140.355 96.9285 141.157 95.5408C142.123 93.8707 143.39 92.4449 144.876 91.1316C144.002 89.821 143.089 88.5998 142.345 87.2839C141.833 86.3788 141.267 85.3913 141.238 84.3559C141.209 83.2828 140.872 82.1631 141.511 81.075C141.797 80.5878 141.523 79.8821 141.843 79.2403C142.035 78.8545 142.155 78.426 142.451 78.056C142.611 77.8566 142.604 77.5228 142.735 76.9936C143.031 76.7191 143.772 76.3491 143.927 75.8119C144.151 75.0312 145.15 75.3288 145.135 74.4157C145.393 74.6112 145.508 74.6981 145.686 74.8331C146.1 74.7106 146.567 74.5724 147.055 74.4289C147.233 74.7659 147.382 75.0483 147.563 75.392C147.206 76.039 146.815 76.746 146.366 77.5584C147.254 77.4708 147.939 77.4024 148.524 77.3444C148.763 77.5834 148.89 77.7098 149.031 77.8507C148.791 78.3207 148.55 78.796 148.231 79.4233C148.794 79.4812 149.231 79.526 149.773 79.5813C149.639 80.2159 149.506 80.8524 149.375 81.4785C149.146 81.6825 148.899 81.9037 148.644 82.1315C148.805 82.2928 148.872 82.379 148.886 82.3705C149.121 82.2408 149.349 82.0992 149.628 81.9307C149.722 82.1822 149.78 82.3369 149.856 82.537C149.348 82.7944 148.865 83.0393 148.314 83.3177C148.569 83.4033 148.772 83.4711 149.147 83.5962C148.719 84.0247 148.339 84.4052 147.844 84.9022C148.475 85.4006 149.035 85.8429 149.635 86.3169C150.518 86.4848 151.228 86.1122 151.922 85.5118C153.529 84.1248 155.295 82.9142 156.879 81.52C158.499 80.0921 160.223 78.6933 161.377 76.7803C161.647 76.3326 162.121 76.0088 162.529 75.6019H164.418C164.521 75.7329 164.699 75.9587 164.883 76.1905C164.677 76.7796 164.465 77.3866 164.188 78.1752C164.761 78.0179 165.226 77.8902 165.831 77.7236C165.926 77.8882 166.074 78.1443 166.329 78.5846Z" fill="white"/>
<path fill-rule="evenodd" clip-rule="evenodd" d="M52.3991 116.394C51.8165 116.574 51.3379 116.723 50.7192 116.914C50.8699 116.591 50.9693 116.378 51.095 116.107C50.683 115.487 50.2169 114.931 49.3644 115.054C49.2986 114.803 49.2564 114.641 49.1972 114.416H47.7141C47.566 114.267 47.4376 114.197 47.404 114.096C47.1769 113.411 47.1289 112.597 46.7168 112.06C46.1862 111.37 46.4502 110.692 46.4258 110.023C46.4054 109.48 46.6246 108.924 46.7582 108.379C47.2375 106.431 47.9787 104.577 48.9227 102.815C49.504 101.732 50.155 100.676 50.8686 99.6752C51.5657 98.697 52.3827 97.8037 53.1706 96.8432C52.9567 96.7063 52.7223 96.547 52.4788 96.4028C50.1241 95.0099 48.0617 93.2562 46.1493 91.3116C45.2468 90.394 45.2415 89.1623 44.9782 88.0288C44.8722 87.5752 44.9611 87.0756 44.9611 86.597C45.4436 85.6767 46.4159 85.599 47.3593 85.2238C47.6772 85.7833 48.0037 86.3587 48.3724 87.0058C48.4369 86.9584 48.5488 86.8761 48.7496 86.728C48.8727 86.8504 49.0892 86.9682 49.1498 87.1414C49.525 88.2085 50.3966 88.7516 51.3228 89.2137C53.2075 90.1557 55.1093 91.0608 57.1329 92.0436C57.6062 91.5434 58.0795 90.7758 58.7667 90.392C59.4 90.0378 59.4329 89.0247 60.4203 89.1222C60.2795 88.949 60.1814 88.8286 60.0352 88.6495C60.3381 88.4375 60.6448 88.2229 61.0721 87.9241C61.207 87.6265 61.413 87.173 61.6145 86.7286C61.9199 86.7109 62.2036 86.6944 62.6124 86.6707C62.4387 86.4469 62.3478 86.3304 62.2069 86.1487C62.9692 86.0374 63.0199 85.2481 63.4998 84.8242C64.0067 84.3759 64.3655 83.7604 64.846 83.1443C64.9527 83.2226 65.0639 83.3042 65.2759 83.4602C65.3694 83.2404 65.4569 83.033 65.5668 82.773C65.6965 82.8776 65.8163 82.9738 66.0323 83.1489C66.2673 81.8882 66.9822 80.8771 67.7418 79.968C68.5245 79.0306 69.2282 77.9543 70.5093 77.327C70.6699 77.4593 70.8851 77.6364 71.1287 77.8365C70.6225 78.8088 70.1321 79.7725 69.0946 80.28V81.7158C69.3401 81.6559 69.5896 81.6671 69.6416 81.5709C69.8497 81.1832 69.9965 80.7626 70.0787 80.5644C70.9319 79.8614 71.629 79.2873 72.5085 78.5632C72.5585 79.234 72.5901 79.6718 72.6217 80.0918C72.3538 80.2017 72.1497 80.2853 71.9351 80.3735C71.9904 80.4505 72.0595 80.5993 72.0964 80.5914C72.5322 80.5019 72.9634 80.3887 73.4933 80.2577C73.6434 80.5223 73.8264 80.8442 74.0107 81.1681C73.912 81.278 73.7941 81.4083 73.6671 81.5492C73.7421 82.0693 74.3675 82.5281 73.8837 83.1238C73.7428 82.9968 73.6177 82.8836 73.49 82.7671C73.4307 82.8783 73.3155 82.9961 73.3392 83.0705C73.4051 83.2812 73.5282 83.4741 73.6664 83.7466C73.5677 84.6583 72.8389 85.2639 72.1629 85.8794C71.523 86.462 70.8193 86.9735 69.9965 87.6338C70.3348 87.828 70.6291 87.9978 70.9602 88.1887C70.7535 88.5857 70.6284 88.8253 70.4968 89.0767C70.5731 89.1617 70.6877 89.2867 70.8654 89.4829C70.475 89.5454 70.1459 89.5988 69.6739 89.6758C69.8023 90.003 69.9122 90.2814 70.0392 90.6046H68.8438C68.622 91.0595 68.4284 91.4565 68.2441 91.8343C68.4153 92.0186 68.5351 92.1477 68.7075 92.3333C68.3409 92.4011 68.0124 92.4623 67.5345 92.5518C67.6503 92.8573 67.7563 93.1325 67.8807 93.4596C67.574 93.505 67.2435 93.5538 66.813 93.617C66.9394 93.958 67.0421 94.2344 67.2119 94.6926C66.7445 94.5109 66.4042 94.3786 65.9934 94.2193C65.7999 94.5879 65.6024 94.9645 65.4102 95.3305C65.4786 95.4608 65.5056 95.6037 65.5866 95.6478C65.7294 95.7255 65.9223 95.711 66.0639 95.79C66.6135 96.0967 66.7419 96.8077 67.2823 97.1125C67.8649 97.4416 68.1184 98.0064 68.4896 98.5094C68.8241 98.9623 69.0722 99.3441 69.0347 99.9174C69.0215 100.114 69.1966 100.322 69.3053 100.567C69.2105 100.728 69.0749 100.958 68.8899 101.273C68.4047 101.329 68.0519 101.979 67.1665 101.636C65.6202 101.036 64.0106 100.499 62.3314 100.297C62.2379 100.285 62.1609 100.137 62.0081 99.9839C61.5171 100.538 61.0293 101.087 60.4171 101.778C60.4092 101.843 60.3762 102.125 60.34 102.43C59.9964 102.484 59.6673 102.536 59.1558 102.616C59.4935 103.09 59.7456 103.445 60.1215 103.972C59.6969 103.848 59.4138 103.766 59.0544 103.66C58.98 103.749 58.8293 103.927 58.6654 104.121C58.8734 104.695 58.7062 105.047 58.0327 105.429C57.8313 106.153 57.6378 106.849 57.4765 107.43C57.1724 107.542 57.0025 107.604 56.7833 107.685L57.1763 108.078C56.6398 108.489 56.0243 108.821 55.6083 109.32C55.2324 109.77 55.0757 110.402 54.7834 111.039C54.8117 111.083 54.9296 111.259 55.1165 111.539C54.7209 111.946 54.3325 112.347 53.9586 112.731C54.1041 112.913 54.2114 113.046 54.397 113.278C54.133 113.58 53.8737 113.876 53.5847 114.206V115.252C53.1607 115.66 52.7309 116.074 52.3991 116.394Z" fill="white"/>
<path fill-rule="evenodd" clip-rule="evenodd" d="M96.5488 123.548C97.3782 124.551 97.3789 124.553 98.3854 123.997C98.4137 124.318 98.4038 124.598 98.473 124.856C98.5223 125.039 98.6777 125.194 98.7778 125.349C98.65 125.478 98.5651 125.562 98.4572 125.67C98.708 125.787 98.9476 125.9 99.3399 126.083C98.9318 126.664 98.5467 127.212 98.1622 127.761C98.6579 128.652 97.6093 128.81 97.4585 129.287C97.2262 130.024 96.3296 130.183 96.3039 130.971C96.2743 131.89 95.3316 132.003 94.9222 132.538C94.5667 133.004 93.9347 133.308 93.8531 133.902C93.9946 134.144 94.1065 134.336 94.2902 134.651C93.759 134.951 93.2962 135.214 92.8321 135.476L91.7123 136.006C91.372 136.407 91.0317 136.809 90.5768 137.345V137.697C89.4307 138.539 88.3603 139.327 87.1175 140.24C87.473 140.421 87.6882 140.531 88.045 140.714C87.5513 141.404 87.0517 142.103 86.5145 142.854C87.8936 143.324 89.1911 143.767 90.5294 144.224C90.3971 144.49 90.2852 144.715 90.1338 145.019C90.7302 145.231 91.2878 145.43 91.9243 145.657V146.438C92.3246 146.806 92.6754 147.128 93.0388 147.462C93.0612 147.884 93.0816 148.287 93.102 148.672L93.753 149.323L92.1014 150.697C91.7123 151.13 91.3068 151.05 90.8711 150.761C90.7387 150.674 90.5531 150.624 90.3925 150.627C88.5387 150.668 86.8634 149.962 85.1769 149.345C83.9327 148.891 82.7353 148.31 81.445 147.754C81.0928 148.105 80.5445 148.371 80.4741 149.095C79.7289 149.271 78.9646 149.453 78.2497 149.622C77.8811 149.249 77.5868 148.951 77.2919 148.653C77.4038 148.529 77.5197 148.401 77.6908 148.212C77.5131 147.842 77.3215 147.444 77.207 147.207C76.652 147.293 76.161 147.369 75.6817 147.443C75.4164 146.919 75.1781 146.445 74.9339 145.962C74.8148 146.081 74.7305 146.165 74.6996 146.196C74.3026 145.792 73.9024 145.386 73.3494 144.825C73.5212 143.58 72.724 142.149 72.938 140.603C72.9834 140.279 72.7352 139.81 72.4739 139.566C71.4147 138.572 71.3693 137.135 70.8716 135.913C70.6814 135.446 70.4786 134.854 70.4622 134.289C70.4345 133.393 70.3298 132.473 70.4832 131.603C70.7255 130.226 70.9862 128.758 72.5891 128.217C73.119 128.038 73.7022 128.018 74.4007 127.902V130.702C75.0083 130.311 75.4151 130.049 76.0221 129.658C76.1063 129.905 76.2077 130.2 76.3078 130.495C76.3979 130.427 76.4881 130.358 76.5783 130.29V131.941C76.887 131.785 77.1102 131.671 77.3209 131.564C78.0825 132.23 78.0627 133.083 77.9574 133.961C78.2122 134.051 78.4195 134.124 78.752 134.242C78.6104 134.626 78.4689 135.008 78.2978 135.47C78.5051 135.432 78.6091 135.443 78.6671 135.397C78.8066 135.286 78.9027 135.089 79.0554 135.031C80.5886 134.448 81.3601 132.818 82.8992 132.251C83.2086 131.137 84.3836 130.899 85.0702 130.148C85.7845 129.367 86.7923 128.859 87.654 128.208C88.4881 127.578 88.9581 126.515 90.0462 126.181C90.7611 124.88 91.79 123.894 93.0704 123.158C93.0256 122.276 94.2382 122.167 94.2099 121.238H95.8286C95.9445 121.353 96.1137 121.522 96.2828 121.691C95.508 122.077 95.225 122.825 94.7293 123.617C95.8016 123.838 96.4191 122.533 97.4296 123.135C97.1373 123.272 96.8983 123.384 96.5488 123.548Z" fill="white"/>
<path fill-rule="evenodd" clip-rule="evenodd" d="M92.3846 104.573C92.301 103.734 93.482 103.642 92.9225 102.86C92.7796 102.987 92.6526 103.1 92.5255 103.212C92.4834 103.17 92.4103 103.132 92.4031 103.085C92.2701 102.205 92.3234 101.371 92.9475 100.654C93.6341 99.8671 94.3147 99.0732 94.973 98.2622C95.1811 98.0061 95.3094 97.6855 95.5141 97.3248C95.189 96.4775 94.7433 95.5994 94.3562 94.7265C93.9408 93.7891 93.9501 92.7727 93.4985 91.8452C93.2582 91.3528 93.8849 90.4884 93.7381 89.8855C93.5729 89.2107 93.1746 88.6367 93.7565 88.0008C93.7684 86.2221 94.9776 85.1135 96.0355 83.8786H99.0261C99.2012 84.0445 99.3743 84.209 99.6548 84.4743C99.1999 85.0543 98.7444 85.6342 98.2408 86.2761C98.2967 86.3959 98.4317 86.6822 98.612 87.066C98.7806 87.066 99.1031 87.1628 99.2183 87.0489C99.718 86.5585 100.295 86.7566 100.821 86.6987C101.015 87.1193 101.177 87.4709 101.358 87.8612C101.088 88.1983 100.809 88.5465 100.387 89.0738C101.026 89.1554 101.455 89.21 102.018 89.2818V91.0026C103.231 91.0421 103.364 89.5734 104.385 89.5793C104.848 88.8737 105.524 88.3826 106.133 87.8197C106.835 87.1713 107.504 86.4841 108.166 85.7935C108.775 85.157 109.394 84.523 109.942 83.8358C110.505 83.1275 110.99 82.356 111.316 81.8886C112.058 81.6226 112.476 81.4725 112.994 81.2869C113.164 81.5285 113.443 81.774 113.514 82.0696C113.568 82.2967 113.387 82.5989 113.266 82.8444C113.127 83.1235 112.936 83.3763 112.938 83.8674C113.462 83.6469 113.985 83.4257 114.561 83.1828C114.868 83.7818 115.198 84.423 115.697 85.3953C115.697 85.3749 115.668 85.7284 115.706 86.074C115.737 86.3425 115.851 86.6019 115.951 86.9462C115.88 87.07 115.75 87.299 115.629 87.511C115.81 87.7065 115.931 87.8362 116.038 87.9514C114.998 89.6169 114.062 91.3409 112.921 92.9531C111.963 94.3065 112.098 94.4013 111.396 94.7844C111.508 94.9088 111.621 95.0339 111.712 95.1346C110.291 96.7264 108.883 98.3056 107.453 99.9085V100.504C108.576 101.22 109.663 101.912 110.799 102.635C110.634 102.958 110.534 103.155 110.378 103.461C110.808 103.831 111.097 104.541 111.929 104.279C112.112 104.641 112.26 104.937 112.406 105.228C112.302 105.374 112.171 105.555 111.993 105.803C112.443 106.254 112.848 106.659 113.285 107.096C113.118 107.525 112.977 107.89 112.819 108.295C112.934 108.493 113.073 108.731 113.2 108.95C113.137 109.086 113.117 109.227 113.039 109.279C112.863 109.394 112.603 109.417 112.474 109.563C111.702 110.435 111.564 110.483 110.593 110.152C109.336 109.722 107.983 109.469 106.835 108.842C105.296 108.002 103.913 106.876 102.323 105.776C101.655 106.27 100.906 106.947 100.185 107.718C99.4869 108.464 98.5673 109.055 97.2889 109.435C97.514 109.063 97.6062 108.911 97.8056 108.58C97.0045 108.729 96.3324 108.854 95.6609 108.979L95.5457 108.748C95.9499 108.433 96.3535 108.118 96.7577 107.803L96.1329 107.179H94.9072C94.7439 106.769 94.5623 106.309 94.3477 105.769H92.8599C92.6552 105.254 92.4715 104.792 92.3846 104.573Z" fill="white"/>
<path fill-rule="evenodd" clip-rule="evenodd" d="M100.172 69.3468C99.5555 69.4942 99.0124 69.6245 98.2461 69.8082C97.4595 69.2269 96.5188 68.5028 95.5478 67.8235C94.3899 67.0131 93.384 65.9809 92.0622 65.4102C91.7561 65.2779 91.4348 65.1824 91.0096 65.0297C90.4941 64.2575 90.4342 62.8238 88.9222 62.9818C88.2382 62.3564 88.1546 61.2702 87.1547 61.1649C86.8275 60.6073 86.6208 59.9694 86.1909 59.5712C84.2286 57.751 82.8086 55.5648 81.5875 52.9271C81.4815 52.1128 81.4809 51.0273 81.3051 49.9385C81.0286 48.2236 81.9423 46.751 83.4274 45.8005C83.8375 45.5385 84.0489 44.9625 84.7302 45.0237C85.2041 45.0665 85.7044 44.8143 86.3338 44.6596C86.5201 44.8255 86.7669 45.0447 87.0783 45.3212C86.5721 46.1711 85.6149 46.7076 85.5425 47.849C86.6688 48.2249 87.1737 46.9735 88.3073 46.8294C88.4456 46.9531 88.6911 47.1717 88.9215 47.3784C88.5199 47.9807 88.2494 48.3862 87.7511 49.1334C88.5259 48.8885 89.0769 48.8845 89.2803 48.6166C89.7944 47.9386 90.6258 47.6667 91.1083 46.9123C91.5579 46.2099 92.2952 45.6866 93.049 45.1968C94.1147 44.5049 94.9784 43.5103 95.9777 42.7058C97.4463 41.5236 98.8228 40.228 100.459 39.2452C101.106 38.8575 101.584 38.1821 102.121 37.6193C102.61 37.1071 103.386 36.8833 103.539 36.1197H105.954V37.6772C105.887 37.7443 105.655 37.976 105.376 38.2558C105.696 38.1985 106.015 38.1531 106.329 38.082C106.647 38.0096 106.961 37.9122 107.444 37.7799C107.37 38.9391 107.426 39.9654 108.263 40.7132C108.087 40.9508 107.986 41.0865 107.783 41.361C108.039 41.5018 108.335 41.6638 108.886 41.9659C108.319 42.1213 108.126 42.1739 107.862 42.2464C107.962 42.4754 108.097 42.6894 108.145 42.9218C108.195 43.1508 108.157 43.3977 108.157 43.6327C107.491 44.5464 106.825 45.4601 106.094 46.4634C105.959 46.4785 105.676 46.5094 105.26 46.5549C105.387 46.7286 105.464 46.8373 105.566 46.9781C105.459 47.2349 105.34 47.5199 105.206 47.8372C103.626 47.7608 103.615 49.3888 102.638 50.0227C102.845 50.2946 102.948 50.4295 102.994 50.4914C102.345 51.1418 101.689 51.7975 101.027 52.459C101.08 52.5077 100.995 52.4307 101.032 52.4636C100.737 52.7579 100.433 53.062 100.129 53.3668C100.03 53.2898 99.932 53.2134 99.8333 53.1364V54.0817C99.6246 53.9099 99.5035 53.8098 99.2316 53.5867C99.2915 53.9896 99.3317 54.2575 99.3876 54.634C98.9393 55.2146 98.4002 55.9131 97.8163 56.6701C97.5536 56.4779 97.3746 56.3456 97.2153 56.2284C96.5688 56.9841 95.9059 57.7589 95.2371 58.541C95.4945 58.6693 95.7321 58.7872 96.0784 58.959C95.7558 59.3678 95.4787 59.7193 95.2187 60.0491C95.2608 60.1946 95.2608 60.3289 95.3273 60.4039C96.4207 61.6296 97.7175 62.7257 98.57 64.0989C99.5305 65.6452 100.731 67.2415 100.172 69.3468Z" fill="white"/>
<path fill-rule="evenodd" clip-rule="evenodd" d="M125.08 43.3916C125.191 43.281 125.276 43.1961 125.364 43.1085C125.299 43.0256 125.244 42.9301 125.167 42.8597C124.702 42.4351 124.114 42.071 123.738 41.655C123.368 41.2482 122.955 40.9381 122.581 40.5655C122.084 40.0699 121.53 39.3602 121.503 38.7223C121.457 37.5809 121.387 36.4361 121.659 35.24C122.127 33.1749 123.208 31.6115 124.641 30.185C126.459 28.3741 128.271 26.5572 130.179 24.6495C129.455 24.0261 129.418 22.849 128.271 22.62C127.789 21.6832 127.309 20.7465 126.828 19.8097C126.383 18.9454 126.463 18.0126 126.467 17.089C126.471 16.4314 126.469 15.7738 126.469 15.1161C127.074 14.344 127.679 13.5718 128.274 12.8134H131.264C130.785 13.6317 130.375 14.3315 129.973 15.0187C131.079 15.8218 131.485 14.082 132.457 14.6125C133.063 15.4426 131.935 15.8337 131.577 16.6368C132.267 16.4715 132.668 16.3748 133.158 16.2569C133.449 17.1101 133.304 17.8566 132.845 18.6584C133.09 18.7538 133.283 18.8289 133.574 18.9414C133.781 19.1639 133.351 19.1962 133.277 19.524C133.566 19.9651 133.917 20.5022 134.35 21.1665C137.313 18.058 141.09 15.9745 143.4 12.4244H145.201C145.062 13.0169 144.941 13.5343 144.775 14.2419C145.275 14.0655 145.661 13.9299 146.188 13.7436V15.1365C146.477 15.2122 146.639 15.2544 146.801 15.2972C146.846 15.3979 146.917 15.496 146.93 15.6006C146.951 15.7771 146.906 15.964 146.94 16.1371C147.306 18.0014 146.377 19.4806 145.403 20.8775C144.35 22.3889 143.127 23.7825 141.891 25.3367C142.773 26.3959 144.183 26.9107 145.425 27.8994C145.448 28.0627 145.485 28.3378 145.53 28.6545C145.859 29.0659 146.391 29.4642 146.541 29.975C146.872 31.0948 147.689 32.1375 147.134 33.5831C146.998 33.645 146.699 33.7918 146.393 33.9221C146.088 34.0518 145.776 34.1637 145.429 34.2986C144.954 33.8155 143.881 33.9688 144.025 33.0281C142.929 32.7115 141.964 32.4324 141.029 32.1618C140.816 31.7899 140.621 31.4529 140.402 31.0717H138.419C138.369 30.8578 138.331 30.6958 138.283 30.4957C137.55 29.9316 136.934 30.5958 136.505 30.7103C135.919 31.3897 135.471 31.9097 134.975 32.4831C134.833 32.3751 134.719 32.2882 134.522 32.1388C134.31 32.4383 134.081 32.7609 133.803 33.1539C133.766 33.1058 133.856 33.2223 133.99 33.3948C133.158 33.6035 133.085 34.4395 132.719 35.1274C132.432 34.9503 132.243 34.8338 131.953 34.6554C131.904 34.9648 131.856 35.2676 131.798 35.6257C131.674 35.6593 131.513 35.7028 131.224 35.7811C131.147 36.5085 131.044 37.3946 129.966 37.153C129.604 37.6223 128.997 38.0588 129.038 38.4222C129.162 39.5143 128.248 40.0363 127.998 40.8901C127.88 41.969 127.897 41.9684 128.232 42.6892C127.45 43.3119 126.568 43.7312 125.555 43.99C125.423 43.8228 125.275 43.6371 125.08 43.3916Z" fill="white"/>
<path fill-rule="evenodd" clip-rule="evenodd" d="M20.09 23.1081C19.643 23.1634 19.3737 23.1969 19.0341 23.2391C19.2408 23.4681 19.3586 23.5978 19.5469 23.8065C19.1012 24.6353 18.2566 25.1323 17.6839 25.8571L17.9643 26.1375C17.5082 26.4956 17.0513 26.8537 16.6629 27.1585C16.4483 27.724 16.9065 28.3619 16.1514 28.7121C16.8202 29.1604 17.4318 29.5606 18.0328 29.9753C19.9175 31.2774 21.9332 32.3945 23.4867 34.1482C24.3767 35.1521 25.2147 36.1224 25.2305 37.5641C25.2332 37.807 25.48 38.0466 25.6768 38.4027C25.1351 38.7457 24.6275 39.0663 23.9916 39.4685C20.4086 37.3692 16.7044 35.4984 13.307 32.7566C13.0634 32.8955 12.5315 33.0127 12.4334 33.2859C12.0444 34.3681 11.2821 35.1277 10.5059 35.9025C10.4112 35.9973 10.4467 36.2218 10.421 36.3877C10.0886 36.4246 9.80619 36.4549 9.37501 36.5022C9.45795 36.786 9.52839 37.0269 9.65149 37.4489C8.96029 38.0275 8.44419 38.8885 8.17232 39.9576C8.01433 40.5784 7.41923 41.0872 6.88602 41.837V45.738C6.54635 45.7598 6.26328 45.7775 5.9427 45.7979C5.87358 45.9921 5.79985 46.2001 5.71164 46.4496H4.47406C4.28052 45.8888 4.08237 45.3134 3.85329 44.6505C3.50901 44.8019 3.16538 44.9527 2.75592 45.1324C2.67166 44.8717 2.60518 44.6676 2.53869 44.4636C2.43731 44.4214 2.3254 44.328 2.2339 44.3451C1.47424 44.4893 0.95419 43.8468 0.860714 43.438C0.479565 41.7738 -0.597394 40.1281 0.436776 38.3415C0.455867 36.572 1.55455 35.2219 2.17729 33.6828C2.3807 33.1805 3.25491 33.2687 3.01792 32.4011C2.9205 32.0443 3.56825 31.4789 3.88686 31.0148C4.17585 30.5941 4.44772 30.1577 4.78016 29.7739C5.17052 29.323 5.64581 28.9451 6.03288 28.4922C6.35478 28.1143 6.60296 27.6739 6.91828 27.2105C4.73671 25.572 3.40236 23.2443 1.87316 21.074C1.38274 18.974 0.535519 16.9346 0.86598 14.4759C1.37089 13.896 2.01667 13.1534 2.71116 12.3562C3.48004 12.5142 4.34437 12.0376 5.04677 12.8388C4.58662 13.4589 4.12977 14.0744 3.66831 14.6965C3.79536 14.8308 3.91319 14.9571 4.02971 15.0809C5.00398 15.2823 5.36077 13.8644 6.37848 14.1929C6.52989 14.4865 6.68064 14.7807 6.83863 15.0862C6.52528 15.2869 6.16651 15.5173 5.78997 15.7583C6.01972 15.9887 6.1889 16.1579 6.35808 16.327C6.86627 15.8011 7.35999 15.7945 7.95706 16.514C7.90308 16.9149 8.21379 17.4942 7.61409 17.9609C7.86292 18.0807 8.10649 18.1979 8.45472 18.3644C8.16837 18.7495 7.91427 19.0905 7.65424 19.4401C7.89649 19.5263 8.10451 19.5994 8.53964 19.7541C8.1394 19.862 7.94982 19.9127 7.61804 20.0023C7.65293 20.2939 7.58315 20.6928 7.74904 20.916C8.43629 21.8402 9.19464 22.7111 10.0076 23.6992C10.4553 23.2977 10.7989 22.9988 11.1313 22.6887C13.0957 20.8574 14.7394 18.6613 17.1757 17.3645C17.1626 16.6898 17.8689 16.7372 18.173 16.3758C18.5173 15.967 18.8998 15.5904 19.1466 15.3264H20.3533C19.8062 16.1315 18.8741 16.5864 19.1782 17.7463C19.9576 17.2816 20.7206 16.8267 21.6501 16.2731C21.5672 16.8043 21.5026 17.2138 21.4302 17.6792C21.7554 17.8431 22.2386 18.0886 22.7573 18.3506C22.6237 18.6278 22.5118 18.8588 22.3815 19.1294C22.5691 19.1689 22.7323 19.2024 22.9028 19.238C22.9206 19.3078 22.9891 19.4269 22.9561 19.471C22.519 20.0608 21.9338 20.5822 21.6554 21.2359C21.3065 22.0561 20.5369 22.4254 20.09 23.1081Z" fill="white"/>
<path fill-rule="evenodd" clip-rule="evenodd" d="M52.8604 41.4328C54.2909 39.6778 55.4988 38.219 56.6818 36.7398C57.8022 35.339 58.76 33.8263 59.6309 32.276C59.5196 32.1384 59.4117 32.0054 59.2267 31.7777C59.5308 31.4327 59.8317 31.0904 60.1509 30.7277H61.3339C61.7763 31.1701 62.1324 31.8014 62.6386 31.9626C63.2567 32.1588 63.3443 32.6532 63.5938 33.0225C64.4588 34.3015 65.0605 35.5997 64.3956 37.2665C63.9868 38.2914 63.5727 39.317 63.1475 40.3374C63.0198 40.6448 62.9263 40.9667 62.7637 41.4347L61.8572 42.3419V43.4715C61.1476 44.7571 60.5571 45.8288 59.9107 47.0006C60.804 47.6075 61.6268 48.1927 62.4747 48.7391C64.1546 49.822 65.5443 51.1669 66.3744 53.0147C66.5528 53.4123 66.6344 53.854 66.8201 54.4748C66.7562 54.6163 66.6002 54.9645 66.4277 55.3463C66.0578 55.5188 65.6582 55.7051 65.3462 55.8499C64.5022 55.5583 63.7557 55.3404 63.0421 55.0435C62.3279 54.7473 61.6466 54.3721 60.9508 54.0317C60.8323 52.9923 59.6474 53.4123 59.1596 52.7053C58.7593 52.1247 57.8693 51.8831 57.0886 51.4282C54.749 53.8152 52.6886 56.4226 50.798 59.169C50.6525 59.3797 50.6992 59.7226 50.6571 60.0037C49.8329 60.6383 49.018 60.5415 48.2004 59.9649V59.3941C47.1379 58.7576 46.1419 58.1612 45.0525 57.5082C44.5311 56.8973 44.7964 55.9375 44.4567 55.1949C44.0782 54.3681 44.3981 53.5676 44.2546 52.9594C45.4422 50.3124 46.8476 47.9939 48.86 45.9934V44.7716C47.6968 43.9613 46.974 42.698 46.242 41.4591C45.9964 41.0437 45.9583 40.5013 45.8457 40.0128C45.6173 39.0188 45.2756 38.0571 45.3059 37.0012C45.3645 34.9815 46.5112 33.5406 48.4393 32.8158C49.6552 32.3589 50.8362 32.5887 52.1435 32.4603C51.4398 33.9171 49.7539 33.7927 48.7685 35.0138C50.4682 34.9388 51.5037 33.3378 53.2369 33.6432C53.1698 34.0514 53.1027 34.4602 53.0316 34.8907C53.3495 35.0026 53.8162 35.1678 54.2652 35.3271V37.6068C53.8031 38.4132 53.2955 39.2176 52.8815 40.0681C52.7478 40.3413 52.8604 40.735 52.8604 41.4328Z" fill="white"/>
<path fill-rule="evenodd" clip-rule="evenodd" d="M83.1981 19.0851C82.526 19.9277 81.9125 20.6979 81.2338 21.5484V23.8517C80.6025 24.1052 79.9883 24.3527 79.2945 24.6312C78.4743 23.8346 78.1418 22.7781 77.8792 21.7795C77.5277 21.9105 77.2169 22.0257 76.7555 22.1968C76.3934 21.6761 75.953 21.216 75.7154 20.6683C75.0044 19.0272 75.061 17.2748 75.1387 15.6258C75.4369 14.9464 75.7029 14.3395 76.0347 13.5818C75.5383 13.5074 75.0986 13.5765 74.9162 13.3922C73.7563 12.2198 72.6116 11.027 71.5484 9.76768C70.9757 9.08832 70.3714 8.3201 70.143 7.49263C69.8099 6.28138 69.802 4.98061 69.6447 3.62782C70.191 2.8596 70.6354 1.95972 71.3292 1.33962C71.9671 0.769539 72.8742 0.500957 73.8577 0C74.0868 0.248175 74.3099 0.48845 74.5357 0.732674C74.4041 0.859066 72.6511 2.54757 72.6511 2.54757C72.7774 2.67462 72.9045 2.80167 73.0914 2.98797C73.8939 2.40275 74.6931 1.63716 75.9978 2.14207C75.6739 2.58575 75.4218 2.9307 74.9788 3.53698C75.5778 3.30329 75.9122 3.17361 76.3756 2.99324C76.5942 3.32238 76.8285 3.67588 77.1129 4.10508C76.6179 4.60077 76.2288 4.98982 75.7595 5.45984C76.0623 5.52172 76.2256 5.55595 76.4968 5.6119C76.0899 6.29784 76.3197 7.24643 75.271 7.59664C76.3118 8.87701 77.4704 9.5827 78.6461 10.3634C82.6037 7.08186 86.4751 3.87139 90.3985 0.618132H92.1305C91.827 1.22639 91.586 1.71155 91.3418 2.20263C91.8619 2.59958 92.2733 2.15392 92.7341 1.9538C94.0652 3.19599 94.3785 4.74691 94.1047 6.47689C93.5517 7.18653 92.9836 7.91525 92.4036 8.65912C92.4412 8.69335 92.5274 8.77366 92.7644 8.99287C92.4451 9.03368 92.1377 9.07318 91.8296 9.11268C91.9501 9.2417 92.0705 9.37139 92.191 9.50107H91.5229C90.2925 11.8163 88.213 13.3916 86.6904 15.5007C88.7771 16.6632 91.1121 17.5282 93.32 18.8441C93.3871 19.1759 93.4628 19.5525 93.5517 19.9975C93.8229 19.7105 94.0263 19.4952 94.2225 19.2878C95.1112 19.4076 95.0927 20.4293 95.8386 20.8032C96.4916 21.131 96.8728 22.0013 97.381 22.6398V24.7714C97.2085 24.9438 97.0393 25.113 96.8023 25.35C94.9538 25.1525 93.4253 24.0993 91.7421 23.2474C91.7078 23.2784 91.5828 23.3916 91.5281 23.441C90.3504 23.15 89.648 21.8861 88.2893 22.075C87.6561 21.2607 86.6147 21.1975 85.8023 20.7176C84.9814 20.2331 84.1862 19.7072 83.1981 19.0851Z" fill="white"/>
<path fill-rule="evenodd" clip-rule="evenodd" d="M135.479 47.7675C135.85 47.9769 136.142 48.1415 136.569 48.383C136.472 48.9676 136.373 49.5568 136.253 50.2822C136.554 50.8049 136.806 51.6008 137.719 51.922C138.128 51.3519 138.378 50.6996 139.165 50.381C139.717 50.1565 140.042 49.3698 140.465 48.832C140.931 48.2402 141.577 47.836 141.944 47.1152C142.252 46.5089 142.914 46.0942 143.332 45.5294C143.763 44.9455 144.09 44.2839 144.462 43.6572H146.485C146.592 44.2246 146.767 44.7855 146.099 45.3714C146.675 45.3977 147.122 45.4181 147.53 45.4366C147.712 46.2739 147.877 47.0322 148.039 47.7735C147.748 47.8874 147.542 47.9677 147.299 48.0625C147.325 48.227 147.321 48.3988 147.379 48.545C147.88 49.7806 147.798 50.2045 146.836 51.1584C146.435 51.556 146.267 52.1748 146.43 52.5612C146.687 53.1681 145.916 52.9345 146.28 53.4947C145.894 53.1767 145.773 53.0766 145.564 52.9042V53.9041C145.184 53.9772 144.857 54.0397 144.467 54.1141V55.0956C144.007 55.5742 143.684 55.9125 143.414 56.1943C144.04 56.8072 144.617 57.372 145.097 57.8426V59.1948C145.484 59.5818 145.889 59.9867 146.304 60.4027C146.175 60.6318 146.092 60.776 145.948 61.0294C146.136 61.4112 146.367 61.8812 146.666 62.4875C146.319 63.2103 145.937 64.0088 145.574 64.7672H144.077C142.334 63.7699 140.644 62.8015 138.959 61.8365C138.66 62.2979 138.423 62.6653 138.221 62.9766C137.91 62.8252 137.671 62.7081 137.259 62.5073V64.178C136.712 63.9746 136.33 63.8324 135.616 63.5665C135.911 63.9693 135.991 64.0793 136.147 64.2912C135.818 64.6006 135.469 64.9278 134.918 65.4452C134.808 64.7771 134.739 64.3584 134.663 63.8976C134.915 63.8107 135.119 63.7402 135.379 63.6501C135.404 63.5151 135.435 63.3519 135.473 63.1524C135.246 63.0734 135.037 63.0023 134.828 62.9299C134.905 62.6126 134.983 62.2927 135.116 61.7502C134.784 62.055 134.655 62.1729 134.579 62.2426C133.815 62.0991 133.092 61.9642 132.33 61.822C132.213 61.5969 132.061 61.3033 131.881 60.9596C132.017 60.4343 132.171 59.8379 132.327 59.2297C132.678 59.2876 133.123 59.362 133.569 59.4357C133.587 59.3699 133.605 59.304 133.624 59.2376C133.159 59.0039 132.694 58.7702 132.284 58.5641C132.524 58.0678 132.763 57.5734 133.012 57.0586C131.831 55.0528 130.544 53.1596 129.817 50.9807C129.38 49.4798 129.897 47.9966 130.113 46.5194C130.281 45.3707 131.231 44.5584 132.27 43.9771C132.418 43.8942 132.559 43.7987 132.795 43.6513H134.581C134.863 43.933 135.116 44.1871 135.294 44.3655C134.943 44.717 134.585 45.0738 134.373 45.2851V46.3898C134.769 46.2871 135.149 46.189 135.583 46.0764C135.811 46.289 136.02 46.4845 136.309 46.7551C136.005 47.1264 135.754 47.4325 135.479 47.7675Z" fill="white"/>
<path fill-rule="evenodd" clip-rule="evenodd" d="M27.5124 66.2063C27.7152 66.4091 27.8844 66.5782 28.124 66.8179C27.024 67.7586 25.9299 68.6933 24.8365 69.6288C24.8608 69.6919 24.8859 69.7551 24.9109 69.8177C25.1433 69.7499 25.427 69.744 25.5962 69.6018C25.9121 69.3371 26.161 68.9942 26.5948 68.9086C27.3617 68.4761 28.1286 68.0429 28.8744 67.6216C29.5248 68.1476 29.0502 68.563 28.7704 69.2009C29.1963 69.0396 29.4722 68.9349 29.769 68.8217C29.8987 68.9514 30.0679 69.1206 30.2377 69.2904C30.2384 70.0073 30.2384 70.7248 30.2384 71.4509C30.0291 71.655 29.8158 71.8643 29.59 72.0842C29.6229 72.1671 29.6315 72.2817 29.6927 72.3264C30.1008 72.6325 30.5083 72.9426 30.9388 73.2151C31.4016 73.5074 32.0493 73.5916 32.0671 74.3401C32.0691 74.4264 32.2152 74.5238 32.3113 74.5916C32.6806 74.8516 33.1131 75.0484 33.414 75.3703C33.7142 75.6909 33.8847 76.1326 34.1881 76.6514C34.1881 76.9548 34.1881 77.4334 34.1875 77.9113C33.8906 78.2076 33.595 78.5038 33.3475 78.7513C31.0836 77.9423 28.8461 77.1431 26.6093 76.3439C26.1123 76.6092 25.5771 76.8943 25.0412 77.1793C25.0188 77.1431 24.9965 77.1069 24.9741 77.0707C24.5087 77.5354 24.0433 78.0009 23.4488 78.5953C23.4403 78.7368 23.4231 79.0146 23.4014 79.3688C22.4588 80.2752 21.472 81.2252 20.6761 81.9914C20.2765 83.231 20.4793 84.5041 18.8276 84.7654C18.486 84.219 17.2589 84.1315 17.5387 82.8577C17.199 82.7596 16.7817 82.6378 16.3268 82.5062C16.2241 82.5753 16.0391 82.6991 15.895 82.7952C15.4328 82.3067 15.0293 81.8788 14.4428 81.2581C14.3118 80.1383 14.1439 78.7052 13.9675 77.1971C15.4585 75.5849 16.9278 73.9965 18.4866 72.3106C17.8771 71.9288 17.2484 71.6095 16.7099 71.1784C16.153 70.732 15.6837 70.1764 15.1616 69.6544C15.3058 69.189 15.4526 68.7144 15.6106 68.2016C15.3183 68.1015 15.1096 68.0298 14.8503 67.9402V66.7277C14.9503 66.627 15.0774 66.5006 15.2242 66.3531C15.7376 66.2511 16.2768 66.1438 16.943 66.0108C18.7164 67.0061 20.6557 68.0943 22.5424 69.1522C24.4343 68.4326 25.6607 66.7731 27.5124 66.2063Z" fill="white"/>
</svg>
