<svg width="46" height="46" viewBox="0 0 46 46" fill="none" xmlns="http://www.w3.org/2000/svg">
<path d="M23 15.3485C18.7868 15.3485 15.3486 18.7868 15.3486 23C15.3486 27.2131 18.7868 30.6514 23 30.6514C27.2132 30.6514 30.6515 27.2131 30.6515 23C30.6515 18.7868 27.2132 15.3485 23 15.3485ZM45.9486 23C45.9486 19.8315 45.9773 16.6917 45.7994 13.5289C45.6214 9.85534 44.7834 6.59501 42.0971 3.90868C39.405 1.21661 36.1504 0.384308 32.4768 0.206368C29.3083 0.0284271 26.1685 0.0571273 23.0058 0.0571273C19.8373 0.0571273 16.6975 0.0284271 13.5347 0.206368C9.86112 0.384308 6.60079 1.22235 3.91446 3.90868C1.22239 6.60075 0.390091 9.85534 0.212151 13.5289C0.0342102 16.6974 0.0629103 19.8372 0.0629103 23C0.0629103 26.1627 0.0342102 29.3083 0.212151 32.471C0.390091 36.1446 1.22813 39.4049 3.91446 42.0913C6.60653 44.7833 9.86112 45.6156 13.5347 45.7936C16.7032 45.9715 19.843 45.9428 23.0058 45.9428C26.1742 45.9428 29.314 45.9715 32.4768 45.7936C36.1504 45.6156 39.4107 44.7776 42.0971 42.0913C44.7891 39.3992 45.6214 36.1446 45.7994 32.471C45.983 29.3083 45.9486 26.1685 45.9486 23ZM23 34.7727C16.4851 34.7727 11.2272 29.5149 11.2272 23C11.2272 16.4851 16.4851 11.2272 23 11.2272C29.5149 11.2272 34.7728 16.4851 34.7728 23C34.7728 29.5149 29.5149 34.7727 23 34.7727ZM35.255 13.4945C33.7339 13.4945 32.5055 12.2661 32.5055 10.745C32.5055 9.22393 33.7339 7.99557 35.255 7.99557C36.7761 7.99557 38.0044 9.22393 38.0044 10.745C38.0049 11.1062 37.9341 11.464 37.7961 11.7978C37.658 12.1315 37.4555 12.4348 37.2001 12.6902C36.9447 12.9456 36.6415 13.1481 36.3077 13.2861C35.9739 13.4242 35.6161 13.495 35.255 13.4945Z" fill="#242938"/>
</svg>
