<svg width="49" height="46" viewBox="0 0 49 46" fill="none" xmlns="http://www.w3.org/2000/svg">
<path d="M10.9244 46V14.9639H0.608625V46H10.9244ZM5.76784 10.7239C9.36513 10.7239 11.6043 8.34067 11.6043 5.36244C11.5372 2.31706 9.36527 0 5.83611 0C2.3075 0 0 2.31711 0 5.36244C0 8.3408 2.23859 10.7239 5.7005 10.7239H5.76752H5.76784ZM16.6341 46H26.9499V28.6679C26.9499 27.7403 27.0169 26.8137 27.2893 26.1506C28.0351 24.2973 29.7324 22.3778 32.5821 22.3778C36.3149 22.3778 37.8083 25.2239 37.8083 29.3961V45.9998H48.1234V28.204C48.1234 18.6709 43.0342 14.2352 36.247 14.2352C30.6821 14.2352 28.2387 17.3458 26.8813 19.4645H26.9501V14.9632H16.6344C16.7697 17.8755 16.6344 45.9994 16.6344 45.9994L16.6341 46Z" fill="#242938"/>
</svg>
