<svg width="344" height="477" viewBox="0 0 344 477" fill="none" xmlns="http://www.w3.org/2000/svg">
<path fill-rule="evenodd" clip-rule="evenodd" d="M12.458 151.046C12.2507 150.271 11.8547 149.853 11.124 149.994C9.86643 150.236 9.16238 151.009 9.09059 152.308C9.05122 153.02 9.4704 153.158 10.0633 153.053C11.2815 152.836 11.8465 151.886 12.458 151.046ZM6.02545 379.739C7.26795 376.247 8.07274 372.643 9.11722 369.102C7.06994 372.347 5.96177 375.874 6.02545 379.739ZM15.2336 143.803C20.4166 138.216 25.8255 132.851 31.3189 127.569C24.6432 131.689 19.4868 137.301 15.2336 143.803ZM117.382 88.5105C128.083 83.6716 136.983 76.4226 145.478 68.611C136.616 75.2673 127.766 81.9306 118.305 87.7349C117.967 87.9433 117.689 88.25 117.382 88.5105ZM239.764 357.357C236.654 367.98 230.48 376.989 227.372 387.301C231.281 384.545 241.375 360.817 239.764 357.357ZM114.254 462.97C116.34 462.97 118.447 463.151 120.511 462.938C128.971 462.068 137.32 460.464 145.668 458.884C158.054 456.54 169.478 451.278 181.199 446.96C186.607 444.967 191.779 442.249 195.443 437.454C207.551 421.605 217.299 404.543 224.219 385.711C229.742 370.681 236.928 356.27 242.832 341.369C247.047 330.733 249.737 319.588 250.942 308.152C251.946 298.625 251.382 289.07 251.45 279.523C251.506 271.672 251.367 263.827 251.861 255.95C252.209 250.403 250.964 244.624 250.488 238.941C249.649 228.935 249.8 219.052 252.842 209.345C255.649 200.39 259.454 191.863 264.179 183.807C273.742 167.496 285.731 152.966 298.306 138.937C305.061 131.403 311.685 123.795 317.27 115.35C327.547 99.8112 332.478 82.6495 332.053 64.0673C331.721 49.5403 325.355 38.2616 312.819 30.5981C291.029 17.2785 268.022 13.0161 243.325 21.1276C224.198 27.41 207.167 37.3922 191.588 50.0705C181.872 57.9782 173.001 66.8305 163.311 74.7614C150.113 85.5655 136.705 96.0478 121.162 103.394C109.133 109.08 96.4892 113.08 83.7724 116.84C72.9165 120.05 62.5643 124.383 52.7841 130.07C41.4963 136.634 31.9639 145.031 25.3658 156.472C24.5818 157.835 24.5517 157.817 22.7662 157.854C22.2242 157.866 22.1906 158.316 22.0088 158.677C20.3576 161.971 19.2795 165.407 19.2355 169.131C19.2054 171.646 20.1769 175.244 19.3154 176.455C16.549 180.34 18.6322 184.104 19.1417 187.377C19.7751 191.438 20.8393 195.652 22.0841 199.721C25.2071 209.936 28.7957 219.968 33.8849 229.352C38.5515 237.96 43.0722 246.644 44.419 256.394C44.808 259.219 48.2148 262.446 44.5788 265.464C44.5776 265.465 44.8335 265.746 44.9424 265.914C46.8727 268.888 47.8477 272.245 47.9947 275.693C48.1372 278.988 49.3148 282.067 49.4561 285.324C49.6842 290.579 51.6342 295.688 50.5075 301.086C49.9957 303.542 50.115 306.148 50.1103 308.687C50.0999 314.337 48.1847 319.721 47.8882 325.386C47.7771 327.508 45.9231 330.204 44.9018 332.633C41.2403 341.343 34.7453 347.978 29.047 355.245C23.6856 362.081 17.6618 368.783 17.0979 378.155C16.871 381.936 15.7454 385.926 17.6966 389.474C22.9456 399.009 25.7062 409.819 32.9076 418.368C38.5122 425.022 42.2756 433.084 49.1041 438.865C55.7821 444.519 62.1578 450.606 69.8722 454.782C73.6587 456.833 77.4986 458.931 81.944 459.912C92.625 462.269 103.37 463.12 114.254 462.97ZM202.65 22.9161C203.24 22.7378 203.878 22.6487 204.412 22.3651C217.746 15.2758 231.642 9.66134 246.381 6.21394C246.914 6.08892 247.644 6.10744 247.96 5.289C246.963 5.43139 246.027 5.54252 245.098 5.70343C232.86 7.83114 221.517 12.4998 210.499 18.0286C207.757 19.405 204.755 20.4735 202.706 22.9809C199.421 23.2101 197.415 25.9815 194.572 27.1217C194.074 27.3209 193.537 28.2261 194.297 28.9948C194.549 29.2495 194.898 29.4138 195.054 29.114C196.709 25.9595 200.722 25.7129 202.65 22.9161ZM165.401 70.9019C169.215 68.5299 172.25 65.2897 175.279 62.0461C172.018 65.0293 168.076 67.267 165.462 70.9667C162.677 71.953 160.898 74.2139 158.909 76.2073C161.436 74.8899 163.605 73.1257 165.401 70.9019ZM249.569 374.237C247.355 380.292 245.235 386.31 240.753 391.296C238.045 394.308 235.885 397.935 234.098 401.589C233.451 402.915 232.262 403.316 231.584 404.501C230.004 407.269 229.424 410.396 227.4 413.085C222.837 419.146 218.334 425.234 213.571 431.154C210.428 435.06 207.487 439.164 204.222 442.978C198.137 450.084 190.37 454.85 181.749 458.243C171.787 462.163 161.919 466.418 151.736 469.669C132.759 475.728 113.39 478.169 93.3442 475.778C81.2677 474.338 69.5063 472.058 59.1564 465.892C42.6044 456.03 28.959 442.897 19.3212 425.954C18.9599 425.32 18.4956 424.743 18.0613 424.153C14.1219 418.797 10.5658 413.263 8.75709 406.74C7.86082 403.514 6.53727 400.416 5.07592 397.371C0.741651 388.343 1.57423 379.25 5.07476 370.194C8.59845 361.079 14.4832 353.34 21.0616 346.479C29.8517 337.31 33.9764 326.678 35.2896 314.388C36.5112 302.958 34.5045 291.888 32.4676 280.776C31.2181 273.957 30.1007 267.111 28.7586 260.311C26.5932 249.35 21.5491 239.579 16.3696 229.785C9.62672 217.031 4.47262 203.605 1.35653 189.447C-1.25121 177.6 0.0341336 165.967 4.06964 154.797C6.39484 148.362 9.41713 142.046 14.3153 136.833C19.0838 131.757 23.8952 126.786 29.5819 122.732C43.2494 112.986 58.3169 106.149 74.2922 101.173C92.5313 95.491 110.294 88.7687 125.878 77.3233C137.426 68.8425 148.412 59.6904 158.965 50.008C173.334 36.8238 188.384 24.5507 205.777 15.4738C222.637 6.67585 240.246 -0.172643 259.518 0.00331579C288.525 0.268411 313.361 10.5157 330.955 34.3674C343.966 52.0095 346.075 72.2251 341.824 93.3309C341.056 97.1418 340.279 100.951 339.389 104.735C337.099 114.453 333.146 123.389 327.338 131.585C323.953 136.361 320.303 140.935 316.916 145.66C312.94 151.206 308.512 156.288 303.934 161.243C298.633 166.981 293.936 173.139 289.472 179.514C287.917 181.734 285.452 183.081 283.948 185.471C278.261 194.506 272.348 203.407 268.288 213.345C266.096 218.71 263.862 223.941 263.43 229.986C263.167 233.693 263.393 237.387 263.069 241.07C262.585 246.587 263.537 252.025 264.415 257.417C264.752 259.487 262.242 261.162 262.782 261.307C265.708 262.083 263.651 263.727 263.711 264.922C263.746 265.628 263.298 266.404 263.457 267.052C266.174 278.071 265 289.326 265.231 300.455C265.447 310.787 266.35 321.314 263.556 331.441C262.536 335.134 261.792 338.926 260.716 342.618C259.425 347.046 257.043 351.199 256.646 355.82C256.087 362.327 252.797 367.78 250.428 373.597C250.298 373.917 249.818 374.095 249.496 374.348C249.799 370.884 252.637 368.301 252.737 364.738C250.305 369.904 247.269 374.799 246.009 380.494C247.196 378.408 248.382 376.323 249.569 374.237Z" fill="white"/>
<path fill-rule="evenodd" clip-rule="evenodd" d="M142.739 121.493C149.533 117.507 155.041 112.046 160.198 106.184C154.4 111.313 148.7 116.552 142.739 121.493ZM182.01 87.3815C181.785 87.1407 181.559 86.8999 181.333 86.6591C175.38 92.0965 168.931 96.9793 163.762 103.294L182.01 87.3815ZM45.1564 375.495C41.6674 378.958 40.0787 389.695 42.368 391.906C43.0211 386.468 43.0385 380.826 45.1564 375.495ZM71.5684 159.19C63.3827 164.736 56.0771 171.098 52.5407 180.781C58.1696 172.952 64.3531 165.626 71.5684 159.19ZM193.188 77.5174C206.874 66.8001 221.226 57.2868 237.285 50.5355C226.765 51.9281 197.584 71.206 193.188 77.5174ZM188.375 333.135C185.105 339.666 183.078 346.659 181.152 353.636C179.183 360.771 176.524 367.659 174.217 374.664C172.037 381.286 168.886 387.589 166.163 394.032C177.819 375.239 182.166 353.866 188.375 333.135ZM71.2801 228.319C71.3345 227.917 71.2453 227.338 71.4746 227.152C71.8892 226.814 72.1034 227.329 72.379 227.633C73.1594 228.49 72.7947 229.783 73.8647 230.641C75.839 232.221 77.1973 234.21 78.1804 236.722C79.0188 238.863 81.3069 240.42 82.8667 242.307C83.2152 242.728 83.6518 243.438 83.2025 244.036C82.3676 245.143 83.0369 245.507 83.9563 245.767C85.0923 246.087 85.6933 246.946 86.0789 247.936C87.4707 251.501 89.3235 254.887 89.738 258.815C90.0055 261.349 90.4143 264.377 91.3534 266.226C93.9681 271.377 94.063 276.809 93.8152 281.969C93.5906 286.641 92.692 291.426 92.9074 296.107C93.0927 300.15 91.0581 303.446 90.4919 307.212C89.8064 311.77 86.6451 315.749 86.0221 320.487C85.6377 323.398 82.5644 325.609 82.5911 327.913C82.6513 333.242 77.9303 336.109 77.0965 340.915C76.8314 342.443 76.2049 344.731 74.8756 346.185C72.1439 349.17 71.3449 353.3 68.516 356.273C64.9541 360.017 63.1048 365.029 59.3067 368.745C57.0255 370.978 55.2423 373.858 53.2459 376.428C51.4372 378.753 51.5993 382.358 51.0018 385.431C50.1356 389.88 52.6889 393.345 53.8411 397.253C56.5948 406.59 62.3336 414.309 69.0521 420.537C82.173 432.701 97.8878 436.699 115.36 430.332C117.134 429.686 118.906 429.035 120.695 428.434C131.186 424.913 140.25 419.092 148.668 411.949C159.685 402.6 164.902 389.563 171.005 377.222C173.141 372.907 173.971 367.615 175.583 362.823C176.686 359.542 177.874 356.266 178.634 352.898C179.399 349.503 180.443 346.204 181.459 342.894C182.474 339.59 183.903 336.399 184.706 333.051C185.422 330.074 186.887 327.413 187.504 324.327C188.328 320.201 189.675 316.092 190.796 311.974C194.826 297.166 197.84 282.163 199.656 266.915C200.662 258.464 201.395 249.934 203.146 241.627C208.801 214.778 221.168 191.056 238.202 169.736C245.816 160.208 253.892 151.046 261.863 141.807C273.276 128.579 279.468 112.834 284.134 96.3172C287.036 86.0479 286.533 75.9025 282.763 65.9921C280.612 60.3441 277.409 55.6279 270.652 54.5131C264.359 53.4747 258.22 54.9646 252.27 56.0643C248.732 56.7195 244.879 58.4016 241.328 60.1183C232.812 64.2383 224.173 68.1291 216.768 74.1256C215.004 75.5517 212.809 75.7427 211.046 77.1678C208.791 78.991 207.215 81.4533 204.754 83.0913C203.341 84.0302 201.648 84.1216 200.346 85.3256C192.085 92.9543 182.747 99.371 175.291 107.924C172.703 110.894 169.506 113.326 166.686 116.104C156.099 126.531 143.778 134.332 129.899 139.429C112.883 145.678 97.0043 154.055 82.1499 164.289C76.4701 168.202 70.3861 171.893 66.3136 177.842C63.9525 181.292 60.9163 184.81 60.548 188.764C60.0015 194.611 59.4063 200.717 61.398 206.543C61.8785 207.948 61.0217 209.907 61.3204 210.387C62.4726 212.231 63.1674 214.317 64.4157 216.086C67.1114 219.91 70.8285 223.178 71.2801 228.319ZM68.0493 341.084C68.9456 340.746 69.1679 339.85 69.4771 339.133C72.4207 332.319 75.6028 325.589 77.5725 318.402C78.7246 314.197 80.7464 310.189 80.6804 305.68C78.6459 313.655 75.1002 321.092 72.5816 328.887C71.2453 333.024 68.7453 336.744 68.1165 341.145C64.5187 345.889 62.7528 351.587 59.844 356.69C62.9207 351.664 66.537 346.916 68.0493 341.084ZM201.596 322.127C201.471 321.359 201.592 320.677 200.826 320.292C200.691 321.472 199.74 322.6 201.303 323.635C202.212 324.236 201.358 325.213 201.125 325.94C199.03 332.478 196.993 339.044 194.97 345.593C193.046 351.828 190.747 357.977 189.305 364.362C188.581 367.568 187.026 370.449 185.848 373.474C185.306 374.863 184.85 376.189 184.85 377.698C184.849 380.768 184.636 380.848 181.796 379.234C181.559 379.1 181.2 379.181 180.817 379.157C180.817 379.498 180.711 379.836 180.832 380.039C182.643 383.044 182.259 386.648 180.132 389.543C178.729 391.453 177.452 393.385 176.845 395.895C175.934 399.672 173.343 402.645 170.335 405.129C170.061 405.355 169.44 405.251 169.411 405.776C169.242 408.89 166.735 410.384 164.844 412.238C163.038 414.008 160.813 415.301 159.116 417.245C156.213 420.574 152.948 423.331 148.969 425.547C147.133 426.571 145.267 428.514 143.222 429.315C135.666 432.277 128.258 435.59 120.605 438.35C107.674 443.014 94.9431 441.645 82.1094 438.532C74.5594 436.701 67.7344 433.324 61.4953 428.687C59.1098 426.913 57.1795 424.754 55.2191 422.563C47.7282 414.195 42.4768 404.614 39.839 393.723C38.1495 386.749 39.2148 379.929 42.7096 373.65C43.629 371.998 44.3365 369.832 47.4387 370.206C48.7901 370.369 50.131 367.856 51.1789 366.261C58.5888 354.984 64.6137 343.007 69.4655 330.423C74.5733 317.178 79.0303 303.793 80.7511 289.574C82.0005 279.253 80.6052 269.354 78.0889 259.394C76.074 251.417 71.91 244.748 67.1554 238.253C63.5923 233.388 60.4056 228.249 56.8877 223.349C55.6406 221.612 57.2143 220.505 57.5836 218.272C55.658 220.889 55.3418 220.363 54.522 218.21C53.7021 216.058 52.1991 214.049 51.0122 211.963C48.4739 207.496 47.023 202.627 46.9744 197.61C46.9558 195.707 45.9611 194.119 46.2182 192.318C46.5413 190.046 46.6999 187.717 47.3426 185.533C48.4774 181.67 49.1896 177.597 52.9668 174.974C54.0102 174.249 53.3907 172.001 54.5764 170.729C59.6506 165.283 64.4284 159.478 70.774 155.439C85.8716 145.829 101.685 137.643 118.249 130.746C129.783 125.943 140.794 119.876 149.884 110.953C163.261 97.8232 177.331 85.4645 191.807 73.5722C205.53 62.2993 220.234 52.625 237.096 46.5718C244.176 44.0308 251.435 42.5224 258.938 42.005C269.646 41.2664 277.665 46.1388 283.887 54.2318C295.835 69.7752 298.64 87.268 294.043 106.079C290.952 118.731 286.4 130.863 279.98 142.219C276.966 147.549 274.094 152.943 269.123 156.999C266.752 158.933 265.481 162.2 263.659 164.825C257.425 173.801 249.584 181.499 243.379 190.529C240.616 194.55 238.281 198.791 235.676 202.884C229.993 211.818 226.113 221.677 221.84 231.291C218.09 239.727 216.734 248.945 215.383 258.081C213.929 267.924 212.389 277.758 210.712 287.566C209.744 293.231 209.069 299.081 207.053 304.388C205.653 308.076 205.601 312.004 203.925 315.579C202.963 317.629 203.997 320.438 201.596 322.127Z" fill="white"/>
<path fill-rule="evenodd" clip-rule="evenodd" d="M166.714 281.751C167.029 281.917 167.345 282.084 167.66 282.249C168.672 279.565 171.548 277.656 170.225 273.99C169.054 276.577 167.885 279.164 166.714 281.751ZM106.409 180.793C99.8425 182.026 93.1078 188.208 93.7922 192.396C96.9719 187.205 101.581 183.879 106.409 180.793ZM162.053 141.115C161.861 140.86 161.667 140.605 161.475 140.351C152.726 147.933 143.975 155.515 135.226 163.098C135.412 163.314 135.598 163.53 135.785 163.748L162.053 141.115ZM187.313 116.992C195.538 110.92 203.991 105.2 213.077 100.442C222.26 95.6324 231.551 91.0587 240.972 86.7928C221.831 94.6079 202.917 102.844 187.313 116.992ZM128.213 362.518C130.426 358.912 133.111 355.732 134.916 351.789C139.003 342.868 143.746 334.244 147.634 325.212C153.43 311.756 159.529 298.442 166.679 285.637C167.126 284.834 167.542 284.027 166.355 282.864C152.133 308.919 142.021 336.611 128.213 362.518ZM188.143 130.891C184.435 132.55 182.602 136.135 179.941 138.871C176.447 140.901 174.514 144.558 171.404 147.011C166.041 151.24 160.536 155.333 155.52 159.95C145.139 169.506 133.676 177.311 120.965 183.453C116.246 185.735 110.741 186.222 106.709 190.167C104.243 192.58 101.245 194.53 101.023 198.309C100.692 203.907 101.568 209.317 104.266 214.349C109.254 223.652 115.974 231.784 121.847 240.488C127.951 249.534 133.405 258.738 134.795 270.003C136.122 280.778 135.323 291.458 134.689 302.157C134.561 304.324 133.094 306.39 133.014 308.9C132.904 312.405 132.868 316.302 130.641 319.174C126.624 324.358 125.292 330.681 122.663 336.434C121.801 338.321 122.329 341.102 120.672 342.545C118.46 344.473 117.865 347.01 116.807 349.433C116.395 350.379 115.821 351.329 115.095 352.051C112.699 354.432 111.191 357.576 109.522 360.293C106.246 365.628 102.6 370.351 97.9979 374.537C96.672 375.745 94.5773 375.598 93.7806 377.48C92.9839 379.359 91.5191 380.749 89.9836 382.044C88.4157 383.368 87.6144 385.098 86.9915 387.123C88.1413 387.453 88.8836 386.984 89.6409 386.706C94.4047 384.962 98.4785 381.885 103.079 379.793C111.149 376.123 117.957 370.799 123.347 363.682C127.38 358.357 130.118 352.332 133.004 346.389C138.725 334.61 144.538 322.868 149.903 310.926C152.907 304.236 156.033 297.614 159.359 291.092C164.884 280.257 169.808 269.144 174.607 257.988C178.45 249.053 181.631 239.842 183.713 230.292C185.529 221.953 188.694 214.05 191.79 206.133C197.683 191.059 203.677 176.044 213.393 162.861C222.121 151.017 230.962 139.252 238.851 126.807C244.738 117.518 249.848 107.904 252.356 97.1049C252.625 95.9461 253.484 94.4262 252.498 93.5742C251.663 92.8518 250.302 93.801 249.247 94.2178C238.186 98.5936 227.538 103.804 217.236 109.765C215.375 110.841 213.722 113.276 210.874 112.086C210.472 111.918 209.633 112.482 209.877 112.964C210.74 114.671 209.065 114.65 208.424 115.074C204.372 117.751 200.372 120.494 196.42 123.319C193.329 125.529 191.181 128.679 188.143 130.891ZM106.5 349.217C107.392 349.154 107.648 348.431 107.976 347.788C112.122 339.655 115.196 331.049 118.961 322.751C120.766 318.768 120.149 313.989 123.181 310.447C123.7 309.84 123.537 309.243 122.813 308.933C121.864 308.525 121.353 309.158 121.246 309.934C120.834 312.959 119.389 315.612 118.385 318.429C115.798 325.683 113.582 333.042 110.121 340C108.682 342.893 107.088 345.938 106.573 349.286C104.015 352.674 102.189 356.447 100.761 360.427C102.552 356.629 105.988 353.673 106.5 349.217ZM218.851 172.889C219.975 174.789 219.594 175.983 218.839 177.824C216.999 182.312 213.241 185.838 212.531 190.845C212.279 192.632 210.89 193.982 210.04 195.485C207.876 199.313 207.46 203.766 205.514 207.495C203.667 211.032 202.875 214.907 200.992 218.366C199.992 220.202 200.344 222.488 199.041 224.269C198.162 225.468 195.99 232.933 195.737 234.37C195.104 237.989 194.367 241.59 193.637 245.191C193.512 245.81 193.234 246.445 192.392 246.312C191.523 246.175 191.103 246.57 191.436 247.341C192.685 250.231 191.194 252.819 190.084 255.088C186.854 261.682 184.05 268.46 181.214 275.21C180.652 276.548 178.043 276.185 178.973 278.851C179.442 280.197 177.926 282.529 176.877 284.271C175.856 285.97 175.169 287.866 174.244 289.628C167.43 302.615 161.167 315.861 155.234 329.277C151.943 336.718 148.015 343.874 144.548 351.241C143.673 353.103 143.1 355.192 142.511 357.183C141.97 359.012 141.177 361.636 138.942 362.785C138.528 362.998 138.27 363.187 138.134 363.612C135.401 372.215 128.06 376.715 121.513 381.754C116.825 385.362 111.108 387.493 105.79 389.987C102.499 391.529 99.472 393.983 95.638 394.525C91.7947 395.069 87.9769 395.762 84.0803 395.841C80.3007 395.917 76.806 395.033 73.676 392.861C72.0363 391.725 71.7874 390.28 72.503 388.454C74.2758 383.927 76.9496 380.137 81.0673 377.445C82.6444 376.413 84.3304 375.519 85.3807 373.833C86.1299 372.631 87.399 374.145 88.7909 372.777C93.7157 367.934 96.7832 362.045 99.9421 356.126C106.485 343.866 111.355 330.903 116.045 317.868C118.074 312.227 119.13 306.346 120.053 300.433C120.636 296.7 121.029 292.964 121.279 289.2C121.393 287.454 122.096 286.02 124.24 287.082C125.518 287.717 125.912 286.787 126.512 286.13C126.938 285.662 126.851 285.127 126.441 284.734C125.693 284.018 125.043 284.764 124.459 285.048C122.059 286.215 121.275 285.52 121.397 282.896C121.735 275.668 121.918 268.438 120.04 261.332C119.105 257.791 117.793 254.393 116.083 251.184C111.084 241.8 104.627 233.341 98.9173 224.405C94.7405 217.865 90.4445 211.325 89.5668 203.342C89.3618 201.484 87.8866 199.22 90.4572 197.712C90.5997 197.629 90.7247 197.365 90.7131 197.196C90.2152 189.894 90.441 189.711 95.4052 184.593C98.6267 181.272 102.556 178.962 106.559 177.122C121.288 170.351 133.7 160.5 145.851 149.957C160.642 137.123 174.117 122.803 189.483 110.695C206.317 97.4336 225.573 88.3463 246.013 82.0685C256.801 78.7554 264.795 86.8043 262.443 97.9974C260.095 109.173 255.855 119.633 250.224 129.585C243.759 141.009 236.352 151.832 229.184 162.797C227.218 165.805 225.55 169.069 223.152 171.844C221.908 173.283 220.985 174.548 218.851 172.889Z" fill="white"/>
<path fill-rule="evenodd" clip-rule="evenodd" d="M188.143 130.892C186.285 134.449 183.36 136.915 179.941 138.871C182.602 136.136 184.435 132.55 188.143 130.892Z" fill="white"/>
</svg>
