<svg width="489" height="796" viewBox="0 0 489 796" fill="none" xmlns="http://www.w3.org/2000/svg">
<path fill-rule="evenodd" clip-rule="evenodd" d="M484.524 283.595V898.237H477.81V911.635H484.524V915.546C484.524 955.009 452.457 987 412.907 987H76.0928C36.5399 987 4.47597 955.01 4.47597 915.546V911.635H11.1899V898.237H4.47597V373.475H2.23799C1.00198 373.475 0 372.475 0 371.239V302.02C0 300.785 1.0045 299.785 2.23799 299.785H4.47597V283.595H2.23799C1.00198 283.595 0 282.595 0 281.359V212.141C0 210.906 1.0045 209.905 2.23799 209.905H4.47597V165.244H2.23799C1.00198 165.244 0 164.241 0 163.012V127.282C0 126.049 1.0045 125.05 2.23799 125.05H4.47597V89.8795H11.1899V76.4813H4.47597V71.4542C4.47597 31.9911 36.5433 0 76.0928 0H412.907C452.46 0 484.524 31.9905 484.524 71.4542V76.4813H477.81V89.8795H484.524V209.905H486.762C487.998 209.905 489 210.905 489 212.141V281.359C489 282.594 487.996 283.595 486.762 283.595H484.524ZM11.1899 73.6906V913.309C11.1899 950.314 41.2471 980.301 78.3246 980.301H410.675C447.755 980.301 477.81 950.308 477.81 913.309V73.6906C477.81 36.6864 447.753 6.69909 410.675 6.69909H78.3246C41.2452 6.69909 11.1899 36.6922 11.1899 73.6906ZM243.94 959.645C223.546 959.645 207.014 943.149 207.014 922.8C207.014 902.451 223.546 885.955 243.94 885.955C264.335 885.955 280.867 902.451 280.867 922.8C280.867 943.149 264.335 959.645 243.94 959.645ZM243.941 954.621C261.554 954.621 275.832 940.374 275.832 922.8C275.832 905.226 261.554 890.98 243.941 890.98C226.327 890.98 212.049 905.226 212.049 922.8C212.049 940.374 226.327 954.621 243.941 954.621ZM169.527 73.1318C164.274 73.1318 160.016 68.8828 160.016 63.6414C160.016 58.4 164.274 54.151 169.527 54.151C174.78 54.151 179.039 58.4 179.039 63.6414C179.039 68.8828 174.78 73.1318 169.527 73.1318ZM244.5 38.5198C241.41 38.5198 238.905 36.0204 238.905 32.9372C238.905 29.854 241.41 27.3546 244.5 27.3546C247.59 27.3546 250.095 29.854 250.095 32.9372C250.095 36.0204 247.59 38.5198 244.5 38.5198ZM206.454 59.7336H282.546C284.709 59.7336 286.462 61.4832 286.462 63.6414C286.462 65.7996 284.709 67.5492 282.546 67.5492H206.454C204.291 67.5492 202.538 65.7996 202.538 63.6414C202.538 61.4832 204.291 59.7336 206.454 59.7336Z" fill="white"/>
</svg>
