<svg width="489" height="191" viewBox="0 0 489 191" fill="none" xmlns="http://www.w3.org/2000/svg">
<path fill-rule="evenodd" clip-rule="evenodd" d="M484.524 -512.405V102.237H477.81V115.635H484.524V119.546C484.524 159.009 452.457 191 412.907 191H76.0928C36.5399 191 4.47597 159.01 4.47597 119.546V115.635H11.1899V102.237H4.47597V-422.525H2.23799C1.00198 -422.525 0 -423.525 0 -424.761V-493.98C0 -495.215 1.0045 -496.215 2.23799 -496.215H4.47597V-512.405H2.23799C1.00198 -512.405 0 -513.405 0 -514.641V-583.859C0 -585.094 1.0045 -586.095 2.23799 -586.095H4.47597V-630.756H2.23799C1.00198 -630.756 0 -631.759 0 -632.988V-668.718C0 -669.951 1.0045 -670.95 2.23799 -670.95H4.47597V-706.12H11.1899V-719.519H4.47597V-724.546C4.47597 -764.009 36.5433 -796 76.0928 -796H412.907C452.46 -796 484.524 -764.01 484.524 -724.546V-719.519H477.81V-706.12H484.524V-586.095H486.762C487.998 -586.095 489 -585.095 489 -583.859V-514.641C489 -513.406 487.996 -512.405 486.762 -512.405H484.524ZM11.1899 -722.309V117.309C11.1899 154.314 41.2471 184.301 78.3246 184.301H410.675C447.755 184.301 477.81 154.308 477.81 117.309V-722.309C477.81 -759.314 447.753 -789.301 410.675 -789.301H78.3246C41.2452 -789.301 11.1899 -759.308 11.1899 -722.309ZM243.94 163.645C223.546 163.645 207.014 147.149 207.014 126.8C207.014 106.451 223.546 89.9553 243.94 89.9553C264.335 89.9553 280.867 106.451 280.867 126.8C280.867 147.149 264.335 163.645 243.94 163.645ZM243.941 158.621C261.554 158.621 275.832 144.374 275.832 126.8C275.832 109.226 261.554 94.9797 243.941 94.9797C226.327 94.9797 212.049 109.226 212.049 126.8C212.049 144.374 226.327 158.621 243.941 158.621ZM169.527 -722.868C164.274 -722.868 160.016 -727.117 160.016 -732.359C160.016 -737.6 164.274 -741.849 169.527 -741.849C174.78 -741.849 179.039 -737.6 179.039 -732.359C179.039 -727.117 174.78 -722.868 169.527 -722.868ZM244.5 -757.48C241.41 -757.48 238.905 -759.98 238.905 -763.063C238.905 -766.146 241.41 -768.645 244.5 -768.645C247.59 -768.645 250.095 -766.146 250.095 -763.063C250.095 -759.98 247.59 -757.48 244.5 -757.48ZM206.454 -736.266H282.546C284.709 -736.266 286.462 -734.517 286.462 -732.359C286.462 -730.2 284.709 -728.451 282.546 -728.451H206.454C204.291 -728.451 202.538 -730.2 202.538 -732.359C202.538 -734.517 204.291 -736.266 206.454 -736.266Z" fill="#FFDC4E"/>
</svg>
