<svg width="57" height="46" viewBox="0 0 57 46" fill="none" xmlns="http://www.w3.org/2000/svg">
<g clip-path="url(#clip0)">
<path d="M56.6274 5.44884C55.0504 7.79444 53.1158 9.79395 50.8234 11.4474C50.8461 11.8908 50.8574 12.392 50.8574 12.951C50.8574 16.0567 50.4046 19.1661 49.499 22.2794C48.5934 25.3926 47.2101 28.3725 45.3491 31.2191C43.4881 34.0657 41.2713 36.5876 38.6987 38.7847C36.1261 40.9818 33.0337 42.7336 29.4216 44.0402C25.8094 45.3468 21.9381 46 17.8078 46C11.3616 46 5.42537 44.2598 -0.000999451 40.7794C0.962118 40.8865 1.88583 40.9401 2.77013 40.9401C8.15535 40.9401 12.9652 39.2814 17.1997 35.964C14.6888 35.918 12.4401 35.145 10.4537 33.6452C8.46716 32.1454 7.1001 30.2289 6.35247 27.8957C7.09145 28.0365 7.82079 28.1069 8.54051 28.1069C9.57649 28.1069 10.5959 27.9718 11.5987 27.7015C8.91909 27.1649 6.69614 25.8302 4.92983 23.6977C3.16359 21.5652 2.28046 19.1038 2.28046 16.3136V16.1698C3.92521 17.0805 5.67959 17.5649 7.5436 17.6231C5.95623 16.5648 4.69769 15.1848 3.76796 13.4831C2.83818 11.7814 2.37329 9.93982 2.37329 7.95841C2.37329 5.8687 2.89694 3.92277 3.94424 2.12065C6.85824 5.69659 10.3892 8.5546 14.537 10.6947C18.6849 12.8348 23.1349 14.0233 27.8868 14.2603C27.6841 13.4157 27.5826 12.5342 27.5822 11.616C27.5822 8.40993 28.7168 5.67241 30.9859 3.40345C33.2551 1.13448 35.9927 0 39.1988 0C42.5555 0 45.3828 1.22224 47.6809 3.66671C50.3065 3.14663 52.7649 2.20595 55.0562 0.844652C54.1734 3.62275 52.4725 5.76585 49.9533 7.27398C52.2686 6.99884 54.4933 6.39046 56.6273 5.44884H56.6274Z" fill="#242938"/>
</g>
<defs>
<clipPath id="clip0">
<rect width="56.6283" height="46" fill="white"/>
</clipPath>
</defs>
</svg>
