<svg width="217" height="139" viewBox="0 0 217 139" fill="none" xmlns="http://www.w3.org/2000/svg">
<path fill-rule="evenodd" clip-rule="evenodd" d="M181.251 15.2122C181.191 14.9957 181.133 14.7781 181.073 14.5616C176.626 15.79 172.18 17.0174 167.733 18.2457C167.805 18.5012 167.876 18.7577 167.946 19.0151C172.381 17.7478 176.816 16.4795 181.251 15.2122ZM30.0017 118.784C27.6988 117.444 24.9117 116.689 25.597 113.357C26.0342 111.239 26.4023 109.008 27.3687 107.116C30.3529 101.27 33.12 95.2177 36.8814 89.885C41.8764 82.8051 48.9682 78.1501 57.8857 77.8008C66.394 77.4665 74.9383 77.9106 83.4647 78.1271C95.1763 78.4235 106.937 79.4453 117.829 73.48C124.818 69.6522 130.753 64.9991 134.504 57.6538C138.743 49.3475 143.224 41.119 148.245 33.2667C155.244 22.3221 165.121 15.1913 178.326 13.3273C179.663 13.1387 181.362 12.5739 182.3 13.1476C183.886 14.1186 185.209 15.7321 186.193 17.3487C186.537 17.9125 185.841 19.7555 185.122 20.1806C183.586 21.0917 181.68 21.3561 180.011 22.0816C178.687 22.6564 177.488 23.5215 176.238 24.2639C176.007 24.4006 175.773 24.715 175.569 24.693C171.114 24.1951 169.099 28.0918 166.009 30.0077C158.868 34.4372 154.595 41.3126 150.722 48.4604C147.065 55.211 143.584 62.0574 139.857 68.7681C138.794 70.682 137.377 72.541 135.719 73.96C130.907 78.0832 125.982 81.7444 119.845 84.266C107.943 89.1556 95.9896 87.7685 83.8498 87.0541C76.3319 86.611 68.7229 86.1979 61.252 86.8645C51.7693 87.7097 45.1997 93.6889 39.9466 101.286C38.5641 103.284 36.4643 104.787 35.0657 106.777C34.1394 108.096 33.9483 109.909 33.299 111.447C32.2856 113.854 31.1642 116.215 30.0017 118.784Z" fill="white"/>
<path fill-rule="evenodd" clip-rule="evenodd" d="M27.95 57.9061C28.0829 58.1449 28.2168 58.3848 28.3487 58.6236C30.6024 57.3815 32.8571 56.1393 35.1118 54.8972C34.9619 54.6264 34.8119 54.3556 34.662 54.0848C32.4253 55.3589 30.1866 56.632 27.95 57.9061ZM94.0893 57.8621C94.1483 58.082 94.2072 58.3018 94.2662 58.5217C97.0126 57.7782 99.758 57.0357 102.504 56.2922C102.445 56.0754 102.387 55.8596 102.329 55.6427C99.5831 56.3832 96.8367 57.1227 94.0893 57.8621ZM153.161 1.02927C152.655 1.45697 152.149 1.88567 151.368 2.5472H153.873C155.656 5.81589 154.529 8.2072 152.088 10.3097C149.962 12.1414 147.993 14.228 144.845 14.129C144.52 14.119 143.978 14.2519 143.888 14.4668C142.692 17.3108 140.596 17.1919 138.332 16.1696C138.202 17.5176 138.373 18.8897 137.882 19.9569C137.353 21.1061 136.237 22.0035 135.318 22.9538C130.004 28.4479 127.932 35.5559 125.267 42.443C122.817 48.7756 119.401 54.6374 113.324 58.3428C112.53 58.8265 111.497 58.9214 109.988 59.3711C109.009 60.9709 107.564 62.9505 104.456 63.2433C102.648 63.4142 100.983 64.9941 99.1683 65.2089C94.1712 65.7995 89.0722 66.6279 84.1201 66.1813C79.5278 65.7666 74.9565 64.1397 70.583 62.4949C61.0706 58.9184 51.3453 58.3718 41.593 60.5083C36.1771 61.6954 31.1561 64.2776 27.4702 68.8374C26.3549 70.2174 24.8318 71.2597 23.5535 72.5158C17.3282 78.6315 12.425 85.6635 8.98604 93.6968C7.92566 96.1761 6.91525 98.6773 5.85886 101.16C5.36016 102.327 4.79349 102.906 3.4023 101.969C-0.0216995 99.6616 -0.539397 98.1527 0.440031 93.9047C4.37073 76.8477 14.7277 64.4365 28.7985 54.7913C35.0328 50.5173 42.3455 49.6459 49.6363 49.8488C54.5544 49.9867 59.4995 50.923 64.3267 51.9833C68.8281 52.9716 73.1655 54.6784 77.6159 55.9205C83.0248 57.4294 88.4236 56.4262 93.7895 55.5188C107.325 53.2294 115.7 45.1941 119.828 32.2792C124.406 17.9583 133.603 7.59763 147.241 1.2751C148.931 0.492652 150.943 0.407712 152.806 0C152.925 0.342758 153.043 0.685516 153.161 1.02927Z" fill="white"/>
<path fill-rule="evenodd" clip-rule="evenodd" d="M177.544 61.3393C176.496 62.4811 175.431 63.608 174.407 64.7696C173.967 65.2685 173.164 66.1682 173.281 66.326C174.878 68.4706 173.2 70.2601 172.039 71.0795C169.062 73.1835 170.037 76.1703 169.625 78.8248C169.379 80.4031 167.401 82.8771 165.95 83.1489C165.832 82.4287 165.716 81.7254 165.602 81.0221C164.965 81.3336 164.215 81.524 163.716 81.9833C162.856 82.7749 162.15 83.7341 161.15 84.8868C162.192 85.0902 162.904 85.229 163.652 85.3739C163.796 86.2795 163.936 87.1515 164.074 88.0135C161.352 89.0164 158.61 89.4985 156.525 91.8286C155.391 93.0964 153.821 93.6896 154.718 95.7826C154.795 95.9602 153.711 96.9611 153.535 96.8699C149.292 94.6716 146.986 98.588 145.695 100.638C144.63 102.328 143.388 103.233 142.016 103.878C140.964 104.372 139.371 103.699 138.013 103.588C137.675 103.56 137.323 103.698 136.8 103.79C136.862 104.596 136.917 105.326 136.97 106.039C134.54 107.069 134.54 107.069 129.023 105.543C128.533 108.582 126.059 109.606 122.856 107.952C122.675 108.557 122.504 109.133 122.48 109.212C119.168 109.14 115.706 105.818 112.856 110.685C110.349 107.927 107.748 109.111 104.904 110.554C103.57 111.23 101.767 111.125 100.175 111.135C93.6758 111.179 87.285 111.612 80.9629 113.492C77.8656 114.414 75.241 116.291 72.3198 117.143C66.0106 118.984 63.1163 124.564 58.6932 128.41C56.618 130.214 55.561 133.168 53.9934 135.57C53.0369 137.034 52.6259 139.345 49.85 137.975C47.7012 136.916 46.891 135.56 47.8863 132.958C52.5114 120.871 59.9911 111.481 72.3188 106.194C81.6009 102.217 91.2722 102.165 101.023 101.901C107.325 101.731 113.619 101.287 119.92 101.005C120.894 100.963 122.555 100.08 122.113 102.382L122.124 102.338L120.906 102.799C120.896 102.941 120.887 103.083 120.877 103.224C121.487 103.28 122.111 103.441 122.703 103.363C123.398 103.273 124.073 102.774 124.745 102.799C130.171 102.996 134.744 100.376 139.285 98.0959C144.11 95.6725 148.611 92.5845 153.153 89.6334C154.536 88.7357 155.589 87.332 156.793 86.1595L156.714 86.226C157.605 85.5217 158.493 84.8164 159.946 83.6667C158.305 83.5645 157.472 83.5129 156.154 83.4316C157.938 81.2651 159.424 79.2068 161.184 77.4143C162.349 76.2259 163.153 76.7447 163.983 78.8556C165.312 78.7633 166.592 78.6751 168.126 78.5679C167.389 77.5769 166.768 76.7397 166.329 76.1515C165.165 76.0562 163.722 76.2794 163.485 75.846C163.048 75.0484 163.154 73.8342 163.336 72.8482C163.591 71.4575 164.021 70.0737 164.573 68.7692C164.904 67.9855 165.607 67.3586 166.408 66.3161C165.885 64.1645 166.791 61.9494 170.625 57.0342C171.149 57.2931 171.701 57.5649 172.384 57.9021C172.041 54.5741 172.382 54.0384 174.018 54.1743V57.5837L173.962 57.5073C174.536 58.6779 175.108 59.8474 175.746 61.1538C175.898 61.1122 176.463 60.9554 177.03 60.7977C177.201 60.9782 177.373 61.1588 177.544 61.3393Z" fill="white"/>
<path fill-rule="evenodd" clip-rule="evenodd" d="M178.538 59.294C178.37 59.1156 178.2 58.9371 178.031 58.7587C178.388 54.9722 178.23 54.8036 175.01 55.5066L175.064 55.5821C176.232 54.4712 177.4 53.3594 178.712 52.1094C177.885 51.5799 177.095 51.074 175.887 50.3004C176.918 49.7004 177.656 49.2494 178.418 48.8435C178.67 48.7092 179.106 48.7925 179.253 48.6102C185.007 41.5187 192.64 37.2341 201.079 34.3301C204.984 32.9869 209.103 32.2721 213.133 31.3064C213.709 31.1682 214.332 31.225 214.933 31.1917L215.186 32.0407C210.132 33.5251 205.077 35.0095 200.024 36.4939C200.088 36.74 200.154 36.9861 200.219 37.2332C205.465 35.7841 210.71 34.334 215.907 32.8986C217.732 36.9273 217.45 37.4224 213.696 39.0352C208.77 41.1529 203.924 43.456 199.024 45.6365C198.05 46.0699 197.125 46.7562 195.958 45.5581C195.482 45.0727 194.094 45.4786 192.865 45.4786V43.6599C191.7 44.3982 190.699 45.0316 189.095 46.0473C190.514 46.2169 191.208 46.2993 191.876 46.3797C191.876 46.6464 191.944 46.8562 191.867 46.9532C191.018 48.0268 189.748 48.5504 189.856 50.5495C189.931 51.9192 188.121 51.8731 187.314 50.5838C186.586 51.3917 185.853 52.2045 184.758 53.4182C184.953 55.9233 183.145 57.389 179.775 56.3949C179.901 57.2106 180.2 57.9645 180.038 58.5999C179.953 58.9371 179.065 59.0695 178.538 59.294Z" fill="white"/>
<path fill-rule="evenodd" clip-rule="evenodd" d="M145.105 92.171C141.367 93.8526 137.626 95.5332 133.886 97.2147C133.704 96.9626 133.522 96.7105 133.34 96.4583C133.852 96.1264 134.331 95.7454 134.881 95.4697C137.485 94.1646 140.088 92.8567 142.741 91.6269C143.312 91.3629 144.085 91.4219 144.767 91.3321C144.879 91.6114 144.993 91.8917 145.105 92.171Z" fill="white"/>
<path fill-rule="evenodd" clip-rule="evenodd" d="M121.575 101.137C123.37 97.6229 126.659 98.2776 129.418 97.2148C129.287 99.1123 126.942 100.206 121.594 101.07C121.586 101.087 121.575 101.137 121.575 101.137Z" fill="white"/>
<path fill-rule="evenodd" clip-rule="evenodd" d="M156.87 85.2452C155.836 85.3983 154.733 85.4089 153.787 85.7449C152.858 86.0749 152.088 86.7356 150.988 87.4103C151.245 85.3798 153.626 83.2086 155.166 83.5182C155.831 83.6511 156.251 84.6822 156.785 85.3051C156.788 85.3042 156.87 85.2452 156.87 85.2452Z" fill="white"/>
</svg>
