<svg width="113" height="265" viewBox="0 0 113 265" fill="none" xmlns="http://www.w3.org/2000/svg">
<path fill-rule="evenodd" clip-rule="evenodd" d="M5.83656 207.225V182.97C2.69627 191.4 2.83051 199.343 5.83656 207.225ZM100.074 63.0718C96.5505 73.1427 93.0256 83.2151 89.5007 93.2876C95.5007 84.0462 99 73.9632 100.074 63.0718ZM89.1779 1.12727C95.5655 -0.819954 101.039 -0.824479 104.205 5.85731C105.587 8.77437 104.564 14.2465 102.125 16.7654C105.252 16.1711 106.968 16.8589 107.418 20.4275C107.787 23.3687 109.813 26.0761 110.356 29.0264C112.551 40.9254 114.246 52.9405 110.762 64.8471C109.867 67.8999 106.128 70.2151 108.941 73.9934C106.86 82.3298 104.81 90.6873 100.345 98.161C99.2775 99.9468 97.837 101.512 96.5444 103.161C91.0783 110.128 85.6213 117.102 80.0873 124.015C79.7148 124.479 78.6921 124.371 78.0405 124.675C77.4719 124.939 76.9983 125.412 76.481 125.79C78.8958 128.92 75.2653 129.896 74.0782 130.816C70.5005 133.585 66.404 135.685 62.505 138.038C62.0525 138.312 61.3482 138.421 61.1385 138.811C58.8353 143.086 55.6634 145.846 50.5789 146.659C48.7855 146.947 47.3239 149.305 45.1897 150.033C44.8835 150.997 44.8714 152.271 44.2274 152.876C37.5079 159.195 30.6874 165.406 23.7929 171.741C24.1353 175.4 19.4445 182.967 15.5938 184.145C16.452 184.697 17.0704 185.097 17.09 185.109C16.55 187.249 15.645 189.151 15.6631 191.045C15.7491 200.706 16.0176 210.243 19.7868 219.53C23.6481 229.046 26.1413 239.109 29.71 248.756C30.9739 252.174 33.523 255.159 35.713 258.175C37.0041 259.954 37.4023 261.13 35.2062 262.458C29.3495 265.999 25.0553 265.8 21.3329 259.83C16.3027 251.764 11.2951 243.365 8.28452 234.435C4.56956 223.412 2.44436 211.774 0.501668 200.257C-1.58432 187.891 4.01903 177.579 11.2604 168.121C19.179 157.772 28.7326 149.217 39.6995 142.116C52.9695 133.525 63.9304 122.411 73.8037 110.102C84.1462 97.2062 91.6379 82.9316 95.3001 66.8275C98.0995 54.5242 99.1824 42.0913 95.8672 29.6086C93.4599 20.5467 91.2925 11.4214 89.0436 2.31883C88.9546 1.95834 89.1266 1.533 89.1779 1.12727Z" fill="#FEDB4C"/>
<path fill-rule="evenodd" clip-rule="evenodd" d="M62.5039 57.1384C56.6562 60.3843 55.0831 60.2546 50.6155 55.8624C45.8432 51.1716 41.2987 46.2515 36.638 41.4475C35.8779 40.6647 34.9216 40.0508 34.2534 39.2047C33.0784 37.719 32.0558 36.1157 30.9683 34.5606C33.1614 34.2137 35.5068 33.2212 37.5113 33.6873C39.9156 34.2469 42.4646 35.627 44.1961 37.3932C50.3636 43.6874 56.2098 50.2952 62.5039 57.1384Z" fill="#FEDB4C"/>
<path fill-rule="evenodd" clip-rule="evenodd" d="M17.718 98.8015C12.7633 97.527 7.5928 96.3521 2.54602 94.7774C1.46607 94.4395 0.837109 92.6507 0 91.5315C1.10559 90.7578 2.11766 89.7336 3.3424 89.2796C4.56865 88.8211 6.03623 88.6823 7.34846 88.8347C13.3198 89.53 19.2776 90.3596 25.2339 91.1891C26.3109 91.3385 27.4225 91.5738 28.3893 92.0368C29.0514 92.3536 29.9851 93.2042 29.9157 93.6899C29.8071 94.4667 29.0997 95.5602 28.4074 95.7865C25.0575 96.88 21.6261 97.7276 17.718 98.8015Z" fill="#FEDB4C"/>
<path fill-rule="evenodd" clip-rule="evenodd" d="M69.0733 223.689C66.191 227.078 63.7249 227.274 61.2136 225.229C57.8395 222.481 54.4307 219.732 51.3915 216.637C50.4186 215.645 50.5665 213.553 50.2014 211.965C52.485 211.747 55.6344 210.473 56.8938 211.506C61.2633 215.087 64.9753 219.47 69.0733 223.689Z" fill="#FEDB4C"/>
<path fill-rule="evenodd" clip-rule="evenodd" d="M86.9484 199.294C78.5019 202.977 72.6543 196.801 65.9529 194.41C65.339 194.19 64.6753 192.012 64.9438 191.776C66.2741 190.609 68.4235 188.624 69.3511 189.034C75.2395 191.642 80.8866 194.798 86.588 197.82C86.8127 197.939 86.778 198.547 86.9484 199.294Z" fill="#FEDB4C"/>
<path fill-rule="evenodd" clip-rule="evenodd" d="M37.7761 68.1148C35.7248 68.3788 33.4472 69.341 31.6629 68.7709C26.7654 67.2023 22.0279 65.0922 17.3385 62.9519C16.34 62.4964 15.8121 61.0092 15.0685 59.9956C16.2918 59.3531 17.6945 57.9609 18.7066 58.2022C22.7639 59.1706 26.7881 60.433 30.6523 62.0092C33.3085 63.0921 35.6795 64.8719 38.1788 66.341C38.0445 66.9323 37.9103 67.5235 37.7761 68.1148Z" fill="#FEDB4C"/>
<path fill-rule="evenodd" clip-rule="evenodd" d="M85.421 158.807C84.7799 160.262 84.6864 161.037 84.252 161.374C79.703 164.882 75.2143 168.488 70.442 171.668C69.0875 172.57 66.8658 172.172 64.9216 171.695C70.9035 166.202 76.2746 160.184 85.421 158.807Z" fill="#FEDB4C"/>
</svg>
